<?xml version="1.0" encoding="utf-8"?>
<!-- Generator: Adobe Illustrator 24.3.0, SVG Export Plug-In . SVG Version: 6.00 Build 0)  -->
<svg version="1.1" xmlns="http://www.w3.org/2000/svg" xmlns:xlink="http://www.w3.org/1999/xlink" x="0px" y="0px"
	 viewBox="0 0 400 2000" style="enable-background:new 0 0 400 2000;" xml:space="preserve">
<style type="text/css">
	.st0{display:none;}
	.st1{display:inline;}
	.st2{fill:#FF0000;}
	.st3{fill:#FFFFFF;}
	.st4{stroke:#000000;stroke-width:0.75;stroke-miterlimit:10;}
</style>
<g id="Layer_1">
</g>
<g id="Layer_2" class="st0">
	<g class="st1">
		<g>
			<path d="M220.5,676.3c-9.4,1.4-20.7,3.7-24.7,13.7c-1.8,4.5-0.9,9.4,1.4,13.5c2.4,4.4,6.2,7.7,9.6,11.2c3.4,3.5,6.4,7.2,7.5,12.1
				c1,4.3,0.5,8.9-0.8,13.1c-2.8,9.2-9.2,16.4-16.3,22.6c-8.5,7.4-17.9,13.8-24.8,22.8c-1.2,1.5,1.4,3,2.6,1.5
				c6-7.8,14.1-13.7,21.6-19.9c7.3-6.1,14.1-12.8,18-21.6c3.6-8,4.7-17.5,0.1-25.4c-2.5-4.3-6.3-7.7-9.8-11.2
				c-3.3-3.4-6.6-7.4-7.3-12.2c-0.7-5.1,2.5-9.7,6.7-12.4c4.9-3.2,11-4.1,16.7-4.9C223.2,678.9,222.4,676,220.5,676.3L220.5,676.3z"
				/>
		</g>
	</g>
	<g class="st1">
		<g>
			<path d="M166.1,631.1c6.3,18.2,20.4,33.3,37.9,41.2c4.9,2.2,10.1,3.9,15.5,4.9c0.9,0.2,1.3-1.3,0.4-1.4
				c-18.5-3.5-35.2-15-45.4-30.8c-2.9-4.5-5.2-9.2-6.9-14.2C167.2,629.8,165.8,630.2,166.1,631.1L166.1,631.1z"/>
		</g>
	</g>
	<g class="st1">
		<g>
			<path d="M239.1,617.1c-4.4-4.3-8.6-8.9-12.5-13.7c-2-2.4-3.8-4.9-5.6-7.4c-1.7-2.4-3.5-4.8-4.8-7.4c-1.4-2.9-1.7-5.9-0.6-9
				c0.9-2.7,2.4-5.2,3-8.1c1-5.2-0.8-10.5-3.8-14.7c-3.8-5.2-9.3-8.7-14.6-12c-0.8-0.5-1.6,0.8-0.8,1.3c4.8,3,9.8,6.2,13.5,10.7
				c3.6,4.5,5.7,10.5,3.8,16.1c-0.9,2.7-2.3,5.1-2.9,7.8c-0.6,2.6-0.2,5.2,0.8,7.7c1.1,2.7,2.9,5,4.5,7.4c1.7,2.5,3.5,4.9,5.4,7.2
				c4.2,5.3,8.8,10.4,13.6,15.1C238.8,618.9,239.8,617.8,239.1,617.1L239.1,617.1z"/>
		</g>
	</g>
	<g class="st1">
		<g>
			<path d="M131.8,624.3c5.4-16.1,10.8-33,8-50.2c-0.7-3.9-1.8-7.8-3.4-11.4c-1.7-3.9-4.1-7.3-6.4-10.7c-2.3-3.5-4.3-7-5.4-11.1
				c-1.1-4-1.3-8.3-0.7-12.4c0.6-4,2.2-7.7,4-11.3c1.8-3.5,3.7-7,4.6-10.8c1.9-7.9-1-16-5.2-22.6c-8.2-12.9-21.6-21.4-35.7-26.6
				c-8.2-3-16.7-4.9-25.2-6.5c-8.5-1.6-17.4-3.1-26.1-2.2c-2.1,0.2-4.1,0.6-6.2,1.2c-0.9,0.3-0.5,1.7,0.4,1.4
				c8.6-2.3,17.6-1.3,26.2,0.1c8.3,1.4,16.7,3,24.8,5.5c14.6,4.5,28.8,12,38.2,24.4c4.7,6.2,8.6,14.1,7.9,22.1
				c-0.7,7.9-6.4,14.2-8.4,21.8c-1.9,7.3-1.2,15.2,2.1,22c1.8,3.7,4.4,7.1,6.7,10.6c2.1,3.3,3.8,6.9,5,10.7
				c5,16.5,0.6,33.7-4.5,49.5c-0.7,2-1.3,4.1-2,6.1C130,624.8,131.5,625.2,131.8,624.3L131.8,624.3z"/>
		</g>
	</g>
	<g class="st1">
		<g>
			<path d="M103,462c-1.7-1.7-3.3-3.6-4.8-5.5c-1.5-1.9-3.3-4-4.2-6.2c-0.9-2.4,1.1-4.1,1.9-6.1c0.7-1.7,0.8-3.6,0.3-5.3
				c-1-4.1-4.4-6.8-7.8-8.8c-4.3-2.6-8.7-5-13.1-7.5c-0.8-0.5-1.6,0.8-0.8,1.3c4.4,2.5,8.8,4.9,13.1,7.5c3.6,2.2,7.5,5.4,7.4,10
				c0,2.2-1.5,3.7-2.3,5.7c-0.7,1.7-0.5,3.4,0.4,5c2.3,4,5.5,7.7,8.8,11.1C102.6,463.8,103.7,462.7,103,462L103,462z"/>
		</g>
	</g>
	<g class="st1">
		<g>
			<path d="M87.4,455.2c-2.3-0.2-4.7-0.4-7-0.6c-1.6-0.2-3.3-0.3-4.5,1.1c-1,1.2-1.3,2.9-2.1,4.2c-0.8,1.4-1.9,2.7-3.2,3.7
				c-5.7,4.5-14.2,5.5-21.3,4.8c-4.5-0.5-8.9-1.9-12.6-4.6c-0.8-0.6-1.5,0.7-0.8,1.3c6.4,4.6,14.7,5.6,22.3,4.6
				c6.4-0.9,13.9-3.3,17.1-9.5c0.4-0.9,0.7-1.8,1.1-2.7c0.6-1.2,1.4-1.6,2.8-1.6c2.7,0.1,5.4,0.5,8.1,0.7
				C88.4,456.8,88.4,455.3,87.4,455.2L87.4,455.2z"/>
		</g>
	</g>
	<g class="st1">
		<g>
			<path d="M108.4,465.5c2.4-0.6,4-3,3.8-5.5c-0.1-1.4-0.8-2.4-1.8-3.4c-1.2-1.2-2.3-2.3-2.9-3.9c-2.5-6.5,1.9-13.1,6.2-17.6
				c2.8-2.9,5.9-5.7,8.4-8.9c0.6-0.8-0.7-1.5-1.3-0.8c-5.1,6.6-13.1,11.4-15,20c-0.7,3.3-0.5,7.1,1.5,9.9c1.1,1.5,3.3,2.6,3.5,4.6
				c0.2,1.8-1,3.6-2.7,4C107.1,464.3,107.5,465.8,108.4,465.5L108.4,465.5z"/>
		</g>
	</g>
	<g class="st1">
		<g>
			<path d="M109.5,453.3c4.7-4.4,11.7-5,17.4-7.7c5.7-2.7,10.8-6.8,14.7-11.8c0.6-0.8-0.5-1.8-1.1-1.1c-4,5.1-9.2,9.3-15.1,11.9
				c-5.7,2.5-12.3,3.2-17,7.6C107.8,452.9,108.8,454,109.5,453.3L109.5,453.3z"/>
		</g>
	</g>
	<g class="st1">
		<g>
			<path d="M94.2,443.4c-2.6-0.7-4.7-2.5-6-4.9c-1.3-2.5-1.2-5.2-0.3-7.8c1.6-4.6,5.3-9.1,3.7-14.2c-0.3-0.9-1.7-0.5-1.4,0.4
				c0.9,2.9-0.3,5.7-1.5,8.3c-1.2,2.5-2.5,5.1-2.9,7.9c-0.7,5.2,3,10.4,8,11.7C94.7,445.1,95.1,443.6,94.2,443.4L94.2,443.4z"/>
		</g>
	</g>
	<g class="st1">
		<g>
			<path d="M91.9,458.2c-1.8,0.1-4.6,0.7-5,2.8c-0.2,1.2,0.6,1.9,1.2,2.8c1.1,1.5,0.2,3.5-0.7,4.9c-3.3,5.2-9.2,9-15,10.6
				c-1.7,0.5-3.3,0.7-4.6-0.7c-1.1-1.3-1.9-3-2.6-4.5c-1.4-3-2.4-6.1-3.2-9.3c-1.6-6.3-2.5-12.7-4.3-18.9
				c-2.1-7.2-5.4-14.1-9.6-20.3c-0.5-0.8-1.8,0-1.3,0.8c3.9,5.9,7,12.3,9.1,19.1c2,6.5,2.9,13.2,4.6,19.8c0.8,3,1.7,6,3,8.9
				c1.1,2.4,2.6,6.3,5.5,7c2.7,0.6,5.9-0.9,8.2-2c2.8-1.3,5.4-3.1,7.7-5.2c2.2-2.1,4.8-4.8,5.1-8c0.1-0.7,0-1.5-0.3-2.1
				c-0.3-0.7-0.9-1.2-1.2-1.8c-0.8-1.7,2.4-2.2,3.4-2.2C92.8,459.7,92.8,458.2,91.9,458.2L91.9,458.2z"/>
		</g>
	</g>
	<g class="st1">
		<g>
			<path d="M201.4,488.4c2.4-2.3,5.8-3.2,8-5.7c1.9-2.1,2.3-4.8,0.9-7.3c-1.5-2.7-4.3-4.6-6.5-6.7c-2.5-2.4-4.9-5.1-6.4-8.3
				c-1.5-3.2-2.2-6.9-1.1-10.4c0.9-3,2.8-5.7,3-9c0.2-3.1-1.5-5.8-3.2-8.2c-1.9-2.7-3.5-5.5-4.7-8.7c-2.5-7-3.5-14.6-6.9-21.3
				c-0.4-0.9-1.7-0.1-1.3,0.8c3,5.8,4,12.4,6,18.6c0.9,2.9,2,5.8,3.6,8.4c1.6,2.6,3.9,4.9,4.8,7.9c1,3.3-0.7,6.2-2,9.1
				c-1.2,2.9-1.5,5.8-0.9,8.9c1.3,6.6,6.2,11.5,11.1,15.7c2.5,2.2,5.6,5.4,3.1,8.9c-2.1,2.8-5.8,3.8-8.3,6.2
				C199.6,488,200.7,489,201.4,488.4L201.4,488.4z"/>
		</g>
	</g>
	<g class="st1">
		<g>
			<path d="M202,466.4c-2.4-3.9-2.5-8.7-0.2-12.6c2.2-3.7,5.8-6.5,8.4-10c2.7-3.6,5-7.5,6.7-11.7c0.9-2.1,1.5-4.4,1.2-6.7
				c-0.2-1.9-0.9-3.7-1.9-5.3c-2.7-4.4-7.1-7.2-10-11.4c-0.6-0.8-1.9,0-1.3,0.8c2.6,3.6,6.2,6.3,8.9,9.8c1.4,1.8,2.5,3.8,2.8,6.1
				c0.4,2.5-0.5,5-1.5,7.3c-1.9,4.3-4.3,8.3-7.3,11.8c-2.7,3.2-6.1,6-7.9,9.8c-1.9,4.1-1.6,9.1,0.8,12.9
				C201.2,468,202.5,467.2,202,466.4L202,466.4z"/>
		</g>
	</g>
	<g id="_x38_z4uQk_1_" class="st1">
		
			<image style="overflow:visible;" width="313" height="500" id="_x38_z4uQk" xlink:href="D21E27C874340C10.jpg"  transform="matrix(1 0 0 1 7 294)">
		</image>
	</g>
</g>
<g id="axon">
	<g>
		<g>
			<path class="st2" d="M209.4,713.1c-7,14.7-9.6,31.4-7.6,47.6c1,8.4,3.6,16.4,6.2,24.4c2.5,8.1,5,16.5,4.2,25.1
				c-0.4,4.5-1.9,8.5-3.7,12.6c-1.5,3.6-3,7.2-3.5,11.1c-0.8,7.7,2.3,15.1,5.3,22.1c1.6,3.8,3.3,7.7,4.5,11.7
				c1.3,4.4,1.9,8.9,2.1,13.4c0.3,8.9-1.2,17.8-3.3,26.4c-4.1,17.2-10.9,34.2-10.6,52.2c0,2.2,0.2,4.5,0.4,6.7
				c0.1,0.5,0.8,0.5,0.8,0c-2.1-18.2,4.1-35.7,8.7-53c4.4-16.4,7.4-33.9,1.2-50.3c-2.8-7.4-6.8-14.5-8.1-22.3
				c-0.7-4.2-0.3-8.3,1-12.3c1.3-3.9,3.3-7.6,4.6-11.6c5.1-16.3-4.2-32.6-7.7-48.2c-3.7-16.3-2.4-33.6,3.6-49.2c0.8-2,1.6-4,2.6-6
				C210.3,713,209.6,712.6,209.4,713.1L209.4,713.1z"/>
		</g>
	</g>
</g>
<g id="dendrites">
	<g>
		<g>
			<path class="st3" d="M273.2,510.1c3.2-1.1,6.4-2.3,9.7-3.4c0.7-0.3,1.3-1,1-1.8c-0.2-0.7-1.1-1.3-1.8-1c-3.2,1.1-6.4,2.3-9.7,3.4
				c-0.7,0.3-1.3,1-1,1.8C271.6,509.8,272.4,510.4,273.2,510.1L273.2,510.1z"/>
		</g>
	</g>
	<g>
		<g>
			<path d="M227.9,633.6c1-12.7,2-25.3,3-38c0.9-12.4,1.6-24.9,0.6-37.4c-0.5-6.2-1-12.3-0.5-18.6c0.5-6.5,1.6-12.9,2.5-19.3
				c0.9-6.3,1.9-12.6,2.8-18.9c0.9-6,2.1-12.1,2.6-18.2c0.6-7-1.7-13.7-1.7-20.7c0-3.5,0.3-7,1.1-10.4c0.5-2.3,2-5.9,4.9-5.5
				c0.2,0,0.4,0,0.5-0.3c1.5-6.3,4.8-12,9.4-16.5c2.2-2.2,4.8-4,7.5-5.5c2.5-1.4,5.1-2.7,7.5-4.4c2.1-1.5,4-3.4,5-5.9
				c0.8-1.9,1.5-3.2,3.5-4c1.3-0.5,2.6-1,3.9-1.7c2.6-1.5,4.8-3.5,7.3-5.1c2.7-1.7,5.5-2.7,8.7-2.4c6.6,0.6,12.7,5.2,19.5,3.3
				c0.5-0.1,0.3-0.9-0.2-0.7c-6.3,1.8-12.3-2.4-18.5-3.2c-2.8-0.4-5.5,0-8,1.3c-2.8,1.4-5,3.5-7.6,5.3c-1.3,0.9-2.7,1.6-4.2,2.2
				c-1.4,0.5-2.8,1-3.8,2.2c-0.9,1.1-1.2,2.6-1.9,3.9c-0.8,1.4-1.9,2.5-3.1,3.5c-2.4,2-5.2,3.3-7.9,4.8c-2.7,1.5-5.2,3.1-7.4,5.2
				c-5.1,4.7-8.8,10.9-10.4,17.6c0.2-0.1,0.3-0.2,0.5-0.3c-4.6-0.6-5.8,5.6-6.3,8.9c-0.9,6.1-0.5,12.1,0.5,18.1
				c0.5,3.3,0.9,6.5,0.7,9.8c-0.2,3.4-0.8,6.8-1.3,10.1c-1,6.5-1.9,12.9-2.9,19.4c-1.9,12.8-4.6,25.7-3.7,38.6
				c0.4,6.4,1.1,12.7,1.1,19.1c0,6.6-0.3,13.1-0.7,19.7c-1,14.6-2.3,29.2-3.4,43.9C227.1,634.1,227.8,634.1,227.9,633.6L227.9,633.6
				z"/>
		</g>
	</g>
	<g>
		<g>
			<path d="M232.4,528c-0.9-7.8-2.3-15.5-4.2-23.1c-1-3.9-2.1-7.7-3.3-11.5c-0.6-2-1.5-4-1.6-6.1c-0.1-2.1,0.6-3.9,1.6-5.6
				c1.7-3.1,2.8-6,3-9.6c0.2-3.5-0.2-7.1-0.8-10.6c-1.1-7.1-3.1-14-5.9-20.6c-1.4-3.3-3.1-6.6-5-9.7c-1.7-2.8-3.5-5.8-6.2-7.9
				c-2.7-2.2-6.3-3-8.8-5.4c-2.3-2.2-3.9-5-6-7.4c-4.6-5.1-12.2-5.9-18.6-7c-7.7-1.4-15.4-2-23.1-0.3c-2,0.5-4,1-6,1.1
				c-2,0.2-3.8-0.3-5.7-0.8c-1.7-0.5-3.1-0.3-4.8,0.3c-1.9,0.6-3.7,1.1-5.7,1c-2.1-0.1-4.1-0.6-5.9-1.6c-1.6-0.8-3-1.7-4.7-2.2
				c-3.3-1-6.9-0.7-10.3,0c-1.8,0.4-3.7,0.9-5.5,1.4c-0.5,0.1-0.3,0.9,0.2,0.7c3.7-1.1,7.5-2.2,11.4-2.1c2,0.1,4,0.5,5.8,1.3
				c1.5,0.7,2.9,1.6,4.5,2.2c3.3,1.2,6.8,1.1,10.1,0c1.8-0.6,3.3-0.9,5.2-0.3c1.8,0.5,3.4,0.8,5.3,0.7c3.7-0.2,7.3-1.6,10.9-2
				c4-0.5,8-0.3,12,0.2c4,0.5,7.9,1.3,11.8,2c3.2,0.7,6.6,1.4,9.5,3.1c3,1.8,4.8,4.7,6.9,7.4c1.9,2.5,4,4.2,6.8,5.5
				c1.6,0.8,3.2,1.5,4.6,2.6c1.4,1.1,2.6,2.6,3.6,4.1c2,2.9,3.8,6,5.3,9.1c3.2,6.5,5.6,13.4,7.1,20.5c0.7,3.5,1.2,7.1,1.4,10.7
				c0.2,3.7,0,7.6-1.7,11c-0.8,1.6-1.9,3.2-2.4,4.9c-0.6,1.8-0.4,3.6,0.1,5.4c1.1,4.1,2.6,8.1,3.7,12.2c2.3,8.6,4,17.3,5,26.1
				C231.7,528.5,232.4,528.5,232.4,528L232.4,528z"/>
		</g>
	</g>
	<g>
		<g>
			<path d="M238.4,477.3c-5-6.4-6-14.7-8.7-22.1c-2.6-7.3-7.1-14-13-19c-1.3-1.1-2.8-2.2-4.5-2.7c-1.9-0.6-4-0.4-6-0.3
				c-2.2,0.2-4.4,0.2-6.5-0.6c-1.9-0.7-3.6-1.8-5.4-2.7c-3.3-1.5-6.5-1.3-9.8,0.1c-3.6,1.5-6.8,3.9-10.6,4.9
				c-5.1,1.4-10.5,1.6-15.7,2.2c-5.4,0.6-10.9,1.2-16.3,1.8c-0.3,0-0.3,0.5,0,0.4c9.2-1,18.4-1.9,27.5-3.1c4-0.6,7.5-1.8,11-3.7
				c3.5-1.9,7.3-4.1,11.4-3.2c3.5,0.8,6.4,3.5,10,4.1c2.1,0.3,4.1,0,6.2-0.1c2.3-0.1,4.4,0.2,6.4,1.5c3.5,2.2,6.4,5.6,8.8,8.8
				c2.4,3.3,4.4,6.8,5.8,10.6c2.9,7.7,3.8,16.4,9,23.1C238.3,477.9,238.6,477.6,238.4,477.3L238.4,477.3z"/>
		</g>
	</g>
	<g>
		<g>
			<path d="M212.6,689.5c-0.5-2.1-1-4.4,0.4-6.3c1-1.4,2.6-2.4,3.8-3.6c2.6-2.6,4.8-5.6,6.4-8.9c1.7-3.4,2.7-7.2,3.4-10.9
				c0.7-3.8,1.2-7.8,1.2-11.6c0-1.9-0.2-3.8-0.8-5.7c-0.6-1.8-1.7-3.8-0.9-5.7c1.1-2.8,4.7-3.8,6.9-5.4c1.3-1,2.3-2.3,3.5-3.3
				c1.7-1.5,3.7-1.7,5.9-1.7c2.5,0,5.9-0.1,7.4-2.6c0.9-1.6,0.3-3.5,1.2-5c0.7-1.3,1.8-2.3,2.9-3.3c1.9-1.7,4.1-3.5,4.4-6.2
				c0-0.5-0.7-0.5-0.8,0c-0.3,2.8-2.9,4.5-4.8,6.3c-0.9,0.8-1.7,1.6-2.3,2.6c-0.8,1.3-0.7,2.6-0.9,4c-0.6,4.4-6.4,3.3-9.5,3.6
				c-3.6,0.4-5.2,3.5-8,5.4c-2.1,1.4-4.9,2.4-6.3,4.7c-1.9,3.1,0.8,6.5,1.2,9.7c0.5,4.1-0.2,8.5-0.8,12.6c-0.6,4-1.6,8.1-3.3,11.8
				c-1.8,4-4.5,7.6-7.7,10.5c-1.3,1.2-2.8,2.2-3.4,3.8c-0.7,1.8-0.2,3.8,0.2,5.6C212,690.2,212.7,690,212.6,689.5L212.6,689.5z"/>
		</g>
	</g>
	<g>
		<g>
			<path d="M250.7,620.1c1.6,0.5,3.5-0.4,4.1-1.9c0.1-0.2-0.1-0.4-0.3-0.5c-0.2-0.1-0.4,0.1-0.5,0.3c-0.5,1.2-2,1.8-3.2,1.4
				C250.5,619.2,250.3,619.9,250.7,620.1L250.7,620.1z"/>
		</g>
	</g>
	<g>
		<g>
			<path d="M212.9,689.8c0.1-6.4,0.5-12.9,0.4-19.3c0-3.2-0.4-6.4-0.3-9.6c0-3.2,0.4-6.4,0.7-9.5c0.6-6.2,0.4-12.4,0.4-18.6
				c0-6.2-0.1-12.4-0.6-18.6c-0.3-3.4-0.7-6.7-1.2-10.1c-0.3-1.9-0.5-5.4-3-5.8c0.1,0.1,0.2,0.2,0.3,0.4c0-19.9,0.1-39.8,0.1-59.6
				c0-5,0-10,0-15c0-4.4-0.1-8.9-0.9-13.2c-0.4-2.3-1.1-4.4-2-6.6c-0.8-2-1.8-4-2.2-6.1c-0.6-2.6,0.1-4.7,1.3-7
				c0.8-1.6,1.4-3.2,1.3-5c-0.2-1.8-0.9-3.5-1.6-5.2c-0.8-2.2-1.4-4.3-1.2-6.6c0.4-4,1.7-8.1,2.9-12c2.2-7.2,5.3-14.7,11.6-19.3
				c5.6-4.1,12.6-5.3,18.8-8c2.9-1.3,5.8-3,7.9-5.5c2.3-2.7,3.8-7.4,8.1-7.2c2.3,0.1,4.4,0.7,6.7,0.4c2-0.2,4-0.8,6-1.3
				c2.4-0.6,4.8-1.3,7.2-1.5c2.4-0.2,4.9-0.2,7.3,0c9.8,0.5,19.5,1.4,29.3,2.1c2.5,0.2,5,0.4,7.5,0.6c0.5,0,0.5-0.7,0-0.8
				c-10.1-0.7-20.1-1.5-30.2-2.2c-5-0.4-10-0.9-15-0.3c-4.5,0.6-8.8,2.6-13.4,2.8c-2.3,0.1-4.5-0.7-6.7-0.5
				c-1.6,0.2-2.8,1.1-3.8,2.3c-1.1,1.3-1.9,2.8-2.9,4.2c-1.1,1.5-2.4,2.8-3.9,3.8c-5.7,4-12.9,5.1-19.2,8.1
				c-6.6,3.2-10.9,8.9-13.7,15.5c-1.5,3.5-2.6,7.2-3.5,10.9c-1,3.8-2.4,8-1.5,12c0.5,2,1.4,3.8,2,5.8c0.7,2.4,0.5,4.4-0.6,6.6
				c-0.9,1.7-1.7,3.4-1.7,5.4c0,2.1,0.7,4.1,1.5,6c0.9,2.1,1.8,4.2,2.4,6.4c0.7,2.4,1.1,4.9,1.3,7.5c0.4,4.8,0.3,9.6,0.2,14.3
				c0,20.3-0.1,40.7-0.1,61c0,2.5,0,5,0,7.6c0,0.1,0.1,0.3,0.3,0.4c1.4,0.2,1.8,1.8,2.1,3.1c0.3,1.5,0.5,2.9,0.8,4.4
				c0.4,3,0.7,6.1,1,9.2c0.4,5.9,0.5,11.9,0.5,17.8c0,5.9,0.2,11.9-0.4,17.8c-0.3,2.9-0.6,5.8-0.7,8.8c-0.1,3,0.2,6,0.3,9
				c0.2,6.9-0.3,13.7-0.3,20.6C212.1,690.3,212.9,690.3,212.9,689.8L212.9,689.8z"/>
		</g>
	</g>
	<g>
		<g>
			<path d="M205.5,467.3c-2.4-2.8-3.7-6.3-4.9-9.7c-1.3-3.9-2.7-7.7-4-11.6c-0.6-1.7-1.2-3.5-1-5.3c0.1-2,0.9-3.8,1.9-5.5
				c1.7-3.2,3.8-6.3,6.1-9.1c2.3-2.9,5.1-5.2,8.4-7c3.4-1.8,7-3.3,10.5-5c1.8-0.8,3.6-1.7,5.4-2.5c2-1,4-1.8,6.3-1.8
				c1.9,0,3.7,0.4,5.6,0.6c1.7,0.2,3.5,0.1,5.2,0c8.1-0.7,16.3-4,24.4-1.9c0.5,0.1,0.7-0.6,0.2-0.7c-7.4-1.9-14.8,0.6-22.1,1.6
				c-2.1,0.3-4.1,0.5-6.2,0.4c-2.1-0.1-4.1-0.5-6.2-0.6c-4-0.2-7.4,1.8-10.9,3.4c-3.9,1.8-7.8,3.6-11.7,5.5
				c-3.4,1.7-6.3,3.8-8.7,6.7c-2.4,2.8-4.4,5.9-6.3,9.1c-1.8,3-3.1,6.4-2.2,9.9c0.6,2.3,1.5,4.5,2.2,6.7c0.8,2.3,1.6,4.5,2.3,6.8
				c1.3,3.8,2.7,7.6,5.3,10.6C205.3,468.2,205.8,467.7,205.5,467.3L205.5,467.3z"/>
		</g>
	</g>
	<g>
		<g>
			<path d="M245.8,410.3c2.8,0.2,5.6,0.2,8.3,0.7c1.3,0.2,2.4,0.7,3.5,1.4c0.7,0.5,1.4,1.1,2.2,1.4c2,0.8,3.6-0.6,5.3-1.6
				c2-1.2,5.9-2.2,6.8,1c0.1,0.5,0.9,0.3,0.7-0.2c-0.5-1.7-2.2-2.7-3.9-2.7c-1.1,0-2.1,0.4-3,0.8c-1.3,0.6-2.5,1.8-4,2.1
				c-1.5,0.3-2.6-0.8-3.7-1.6c-0.9-0.7-2-1.1-3.1-1.4c-2.9-0.6-6-0.6-8.9-0.8C245.3,409.5,245.3,410.2,245.8,410.3L245.8,410.3z"/>
		</g>
	</g>
	<g>
		<g>
			<path d="M199.9,455.5c0-0.9-0.6-1.5-1.4-2c-1.2-0.7-2.7-1.2-4-1.7c-3.1-1.1-6.2-2-9.5-2.6c0.1,0.1,0.2,0.2,0.3,0.4
				c0-3.1-2.7-5.2-5.5-6.1c-2-0.6-4.2-0.7-6.2-1.2c-1.9-0.4-3.7-1.2-5.3-2.2c-1.7-1.1-3.1-2.5-4.3-4.1c-1-1.4-1.9-2.9-3.2-4
				c-2.8-2.3-6.6-2.2-10-2c-4.3,0.3-8.7,0.9-12.9,1.9c-2.2,0.5-4.5,1.3-6.8,1.1c-2.1-0.2-3.9-1.5-6-2.1c-3.2-0.9-6.3,0.3-9.3,1.5
				c-1.7,0.7-3.3,1.4-5,2c-0.8,0.2-1.7,0.4-2.6,0.5c-0.4,0-0.9,0.1-1.2,0c-0.4-0.2-0.7-0.9-1-1.2c-2.3-3.1-5.2-5.9-8.9-7.2
				c-3.5-1.3-7.6-1-10.6,1.2c-0.4,0.3,0,0.9,0.4,0.6c2.9-2.2,6.9-2.4,10.2-1.1c3.5,1.4,6.3,4.1,8.5,7.1c0.3,0.4,0.6,1.1,1,1.3
				c0.5,0.2,1.5,0,2-0.1c1.6-0.2,3.1-0.7,4.6-1.3c3-1.2,6.1-2.9,9.4-2.9c2,0,3.6,0.8,5.4,1.5c1.7,0.7,3.3,1,5.1,0.8
				c2-0.2,3.9-0.9,5.9-1.3c2-0.4,4.1-0.8,6.2-1.1c3.8-0.5,8.1-1.2,11.9-0.3c2,0.5,3.6,1.6,4.8,3.2c1,1.3,1.9,2.7,3,4
				c2.6,2.7,5.9,4.4,9.6,5.1c3.7,0.7,10.1,1.2,10.1,6.3c0,0.2,0.1,0.3,0.3,0.4c2.5,0.5,4.9,1,7.2,1.8c1.2,0.4,2.4,0.8,3.5,1.3
				c1,0.4,3.5,1,3.5,2.4C199.1,456,199.9,456,199.9,455.5L199.9,455.5z"/>
		</g>
	</g>
	<g>
		<g>
			<path d="M197.7,432.8c-2-2.2-0.7-6-3-8.1c-1.3-1.2-3.4-0.9-5-0.8c-2.5,0.1-4.9,0.3-7.4,0.3c-2.5,0-4.9-0.2-7.3-0.9
				c-2.2-0.6-4.2-1.6-6.3-2.2c-4.4-1.2-8.9,0.1-13.3,1c-4.7,0.9-9.5,2-14.2,2.8c-2.6,0.4-5.1,0.7-7.7,0.9c-1.1,0.1-2.3,0.2-3.4-0.1
				c-1.4-0.3-2.1-1.3-2.8-2.4c-0.8-1.3-1.7-2.4-3.2-3c-1.5-0.6-3.1-0.5-4.6-0.2c-3.9,0.8-7.6,3.8-11.7,3c-2.3-0.5-3.4-2.6-5.1-3.9
				c-1.5-1.1-3.3-1.7-5.1-2.2c-4-1-8.3-1.1-11.9-3.5c-0.4-0.3-0.8,0.4-0.4,0.6c2.9,1.9,6.4,2.4,9.8,3.1c1.8,0.3,3.6,0.7,5.3,1.5
				c1.9,0.9,3,2.2,4.5,3.6c2.8,2.6,6.6,1.6,9.8,0.3c3.2-1.3,8-3.6,10.9-0.5c1.2,1.3,1.7,3.1,3.3,3.9c1.7,0.9,4,0.6,5.9,0.4
				c4.7-0.3,9.4-1.3,14-2.2c2.4-0.5,4.8-1,7.2-1.4c2.4-0.5,4.9-1.1,7.4-1.4c4.8-0.5,8.8,2.1,13.4,3c2.5,0.5,5.1,0.5,7.6,0.4
				c2.6-0.1,5.4-0.5,8-0.3c4.3,0.3,2.7,6.2,4.9,8.7C197.5,433.7,198,433.2,197.7,432.8L197.7,432.8z"/>
		</g>
	</g>
	<g>
		<g>
			<path d="M114.4,422.1c-1.8,0.4-3.3,1.7-4,3.4c-0.5,1.1-0.4,2.2-0.7,3.3c-0.3,1.1-1,2-1.8,2.8c-1.5,1.4-3.2,2.4-4.2,4.3
				c-1,1.8-1.3,4-0.8,6c0.1,0.5,0.8,0.3,0.7-0.2c-0.5-2.1-0.1-4.4,1.2-6.2c1.1-1.5,2.7-2.4,4.1-3.7c0.5-0.5,1-1.1,1.3-1.8
				c0.4-0.9,0.4-1.9,0.6-2.8c0.4-2.1,1.9-3.7,3.9-4.2C115.1,422.7,114.9,422,114.4,422.1L114.4,422.1z"/>
		</g>
	</g>
	<g>
		<g>
			<path d="M206.3,433.4c-2.1-0.7-3.6-2.5-4-4.8c-0.3-1.6,0-3.4-0.8-5c-0.3-0.6-0.7-1.1-1.3-1.4c-0.5-0.4-1.1-0.6-1.4-1.2
				c-0.3-0.7,0-1.5,0.2-2.3c0.6-2.6,1.3-5.2,1.9-7.8c0.1-0.5-0.6-0.7-0.7-0.2c-0.7,3-1.5,5.9-2.2,8.9c-0.2,0.9-0.2,1.7,0.5,2.3
				c0.8,0.7,1.8,1,2.3,2.1c0.9,1.9,0.3,4.2,1.1,6.2c0.7,1.9,2.2,3.2,4.1,3.9C206.6,434.2,206.8,433.5,206.3,433.4L206.3,433.4z"/>
		</g>
	</g>
	<g>
		<g>
			<path d="M261.1,421.2c-1.6,0.4-2.5,1.8-2.9,3.3c-0.3,1-0.3,2-0.4,3c-0.1,1.3-0.3,2.5-0.5,3.8c-0.5,3.7-0.5,8,2.8,10.4
				c0.2,0.2,0.5-0.2,0.2-0.4c-3-2.2-3-6.3-2.6-9.6c0.2-1.9,0.4-3.7,0.6-5.6c0.2-1.9,0.9-4,2.9-4.5
				C261.5,421.6,261.4,421.2,261.1,421.2L261.1,421.2z"/>
		</g>
	</g>
	<g>
		<g>
			<path d="M260.8,422.1c0.6-1.1,1.3-3.1-0.3-3.8c-0.9-0.4-2-0.2-2.9-0.3c-1.2-0.1-2.4-0.1-3.6-0.2c-1-0.1-2.1-0.3-2.1-1.4
				c-0.1-0.8,0-1.5-0.6-2.1c-0.9-1.2-2.6-1.6-4-1.8c-0.5-0.1-0.7,0.7-0.2,0.7c1.3,0.2,3,0.5,3.7,1.7c0.5,0.7,0.1,1.6,0.5,2.4
				c0.2,0.5,0.7,0.9,1.2,1.1c0.7,0.3,1.4,0.3,2.2,0.3c1.1,0.1,2.1,0.1,3.2,0.2c0.8,0,2.4-0.2,2.8,0.6c0.4,0.7-0.1,1.7-0.5,2.3
				C259.9,422.2,260.5,422.6,260.8,422.1L260.8,422.1z"/>
		</g>
	</g>
	<g>
		<g>
			<path d="M213.1,678.6c0-4.9,0-9.8,0-14.7c0-2.2,0.1-4.5-0.1-6.7c-0.2-2.2-0.7-4.1-1.5-6.2c-0.8-2-1.5-4-2-6.1
				c-0.5-2.4-0.8-4.8-1.2-7.2c-0.8-4.9-1.5-9.9-2.3-14.8c-1.5-9.7-3-19.3-4.5-29c-1.5-9.8-2.3-19.5-1.5-29.4c0.4-4.7,0.6-9.3,0-13.9
				c-0.5-4.3-1.4-8.5-2.5-12.6c-2.2-8.8-5-17.5-5.2-26.7c-0.1-4.9,0.3-9.7,0-14.6c-0.4-4.7-1.3-9.3-2.4-13.9
				c-2.2-9.3-4.8-18.5-7.7-27.7c-0.7-2.3-1.5-4.6-2.3-6.9c-0.5-1.6-1-3.3-2.5-4.3c-1.5-1-3.5-1.2-5.2-1.5c-2.4-0.3-4.7-0.4-7.1-0.2
				c-2.1,0.1-4.2,0.6-6.3,0.9c-2.2,0.4-4.6,0.5-6-1.6c-1-1.4-1.4-3.1-2.5-4.5c-1-1.3-2.4-2.4-3.9-3.1c-1.5-0.7-3.1-1.1-4.7-1.1
				c-0.5,0-0.5,0.7,0,0.8c3.9,0.1,7.5,2.3,9.2,5.9c0.7,1.4,1.2,3,2.6,3.9c1.4,0.9,3.1,0.8,4.6,0.6c2.2-0.3,4.3-0.8,6.5-1
				c2.3-0.2,4.6-0.1,6.9,0.1c2.2,0.2,5.1,0.4,6.5,2.4c1.2,1.8,1.7,4.5,2.4,6.6c2.9,8.9,5.5,18,7.8,27.1c1.1,4.6,2.3,9.2,2.9,13.9
				c0.7,4.8,0.5,9.6,0.4,14.4c-0.2,8.9,1.8,17.4,4,26c2.3,8.6,4.4,17.3,3.9,26.3c-0.2,4.8-0.8,9.5-0.7,14.2
				c0.1,4.7,0.5,9.4,1.1,14.1c1.2,9.4,2.8,18.7,4.2,28c0.7,4.9,1.5,9.7,2.2,14.6c0.7,4.7,1.2,9.5,2.2,14.1c1,4.3,3.2,8.2,3.5,12.7
				c0.3,4.6,0.1,9.3,0.1,13.9c0,2.4,0,4.7,0,7.1C212.3,679.1,213.1,679.1,213.1,678.6L213.1,678.6z"/>
		</g>
	</g>
	<g>
		<g>
			<path d="M169,442.2c-1.4-1.6-0.8-3.9-0.7-5.8c0.1-1.9-0.3-3.5-1.2-5.2c-1.9-3.3-4-6.7-7.3-8.8c-0.2-0.2-0.5,0.2-0.2,0.4
				c1.8,1.2,3.2,2.7,4.4,4.4c1.1,1.6,2.3,3.3,3.2,5.1c0.9,1.9,0.7,3.8,0.5,5.9c-0.1,1.6-0.1,3.1,1,4.3
				C168.9,442.7,169.2,442.4,169,442.2L169,442.2z"/>
		</g>
	</g>
	<g>
		<g>
			<path d="M189.6,482.5c-1.5-10.3-1.7-20.9-0.4-31.2c0.3-2.3,0.3-5.3,1.7-7.2c1.2-1.8,3.5-2.4,5.3-3.3c3.7-1.7,6.9-4.5,9.1-7.9
				c2.7-4.1,4.2-10.5,9.8-11.4c0.5-0.1,0.3-0.8-0.2-0.7c-4.6,0.7-6.7,5.2-8.6,8.9c-2.3,4.4-5.6,8.1-10.1,10.3
				c-1.8,0.9-3.8,1.5-5.2,2.9c-1.5,1.4-1.9,3.5-2.2,5.5c-0.8,5.3-1.2,10.6-1.3,16c-0.1,6.2,0.4,12.3,1.3,18.4
				C188.9,483.1,189.6,482.9,189.6,482.5L189.6,482.5z"/>
		</g>
	</g>
	<g>
		<g>
			<path d="M151.9,404c1.4,2.7-0.5,6.5-3.5,7c-0.3,0.1-0.2,0.5,0.1,0.4c3.3-0.6,5.3-4.7,3.8-7.7C152.2,403.5,151.8,403.7,151.9,404
				L151.9,404z"/>
		</g>
	</g>
	<g>
		<g>
			<path d="M310.3,756.5c0.5,0,0.5-0.8,0-0.8C309.8,755.8,309.8,756.5,310.3,756.5L310.3,756.5z"/>
		</g>
	</g>
	<path class="st4" d="M212.6,654c0,0-0.7,45.5-2.9,49.3c-2.2,3.8-10.1,12.7-4.9,12.4s9.2,7.5,8.3-11
		C212.1,686.1,212.6,654,212.6,654z"/>
	<g>
		<g>
			<path d="M213.7,697.2c3.5-6,7.9-11.5,13.1-16.1c1.3-1.2,2.6-2.2,3.8-3.5c1.1-1.2,1.9-2.6,2.6-4.1c0.7-1.5,1.4-3,2.7-4.2
				c1.1-1,2.5-1.8,3.9-2.5c2.6-1.4,5.1-2.7,7.1-4.9c2-2.1,3.6-4.5,5.2-7c1.6-2.6,3.2-5.3,5.1-7.7c1-1.3,2.1-2.5,3.7-3.1
				c1.8-0.7,3.8-1,5.7-1.4c2-0.4,3.9-0.8,5.9-1.3c1.7-0.4,3.3-0.9,4.7-2c2.6-2.1,3.4-5.4,5.5-7.9c0.6-0.7-0.4-1.8-1.1-1.1
				c-1.9,2.3-2.8,5.3-5,7.4c-1.1,1.1-2.6,1.6-4.1,2c-1.9,0.5-3.9,0.9-5.8,1.3c-3.3,0.7-6.8,1-9.2,3.5c-2.1,2.1-3.7,4.7-5.2,7.2
				c-1.6,2.6-3.2,5.2-5.1,7.6c-2,2.4-4.3,4.1-7.1,5.5c-2.6,1.3-5.2,2.6-6.8,5.1c-0.9,1.4-1.4,3-2.3,4.5c-0.9,1.5-2.3,2.8-3.6,3.9
				c-5.9,5.2-11,11.1-14.9,17.9C211.9,697.3,213.2,698.1,213.7,697.2L213.7,697.2z"/>
		</g>
	</g>
	<g>
		<g>
			<path d="M212.6,692.5c5.3-5.1,13.2-4.9,20.1-4.8c3.8,0.1,7.7,0.1,11.5-0.9c3.7-0.9,7.1-2.7,10.8-3.7c3.6-0.9,7.4-1.3,11-2.4
				c2.8-0.8,5.2-2.2,7.4-4.1c4.1-3.5,6.8-8.2,9.6-12.7c3.2-5,6.7-10.2,12.3-12.8c0.9-0.4,0.1-1.7-0.8-1.3
				c-10.1,4.6-13.2,16.5-20.4,24c-2,2-4.2,3.7-6.9,4.8c-3.6,1.4-7.4,1.8-11.1,2.6c-3.7,0.8-7.1,2.5-10.8,3.6
				c-3.9,1.2-8.1,1.3-12.2,1.2c-7.5-0.1-15.8-0.3-21.6,5.2C210.8,692.1,211.9,693.2,212.6,692.5L212.6,692.5z"/>
		</g>
	</g>
	<g>
		<g>
			<path d="M252,684c3.3-4,8.9-0.3,12.2,1.7c1.8,1.1,3.7,2.2,5.8,2.4c1.2,0.1,2.3-0.2,3.5-0.3c1.4-0.1,2.4,0.4,3.4,1.4
				c1.4,1.3,2.3,3.1,3.9,4.3c1.5,1.1,3.3,1.6,5.2,1.7c4.6,0.4,9.4-0.6,13.1,2.8c4.5,4.2,4.6,10.9,4.7,16.6c0,0.5,0.8,0.5,0.8,0
				c0-5.2-0.1-10.9-3.3-15.3c-1.3-1.7-2.9-3.2-5-4c-2.2-0.8-4.5-0.8-6.8-0.8c-2.5,0-5.1,0.1-7.3-1.1c-2.1-1.1-3.1-3.2-4.7-4.8
				c-1.6-1.5-3.2-1.7-5.3-1.4c-3.1,0.5-5.7-1-8.3-2.6c-3.4-2.2-9.1-5.2-12.4-1.1C251.1,683.8,251.7,684.3,252,684L252,684z"/>
		</g>
	</g>
	<g>
		<g>
			<path d="M211,707.4c-2.8-7.3-11.8-8-18.4-7.2c-4.9,0.6-10.2,1.8-15.1,0.2c-2.3-0.7-4.3-2-6.5-2.8c-1.9-0.7-4-0.9-6-0.8
				c-4.1,0.2-8.1,1.5-12.2,2.3c-2.1,0.4-4.2,0.7-6.4,0.6c-2.3-0.1-4.4-0.8-6.4-1.9c-2-1-4-2.2-6.2-2.8c-2.2-0.6-4.6-0.5-6.8-0.2
				c-2.3,0.3-4.6,0.8-7,1.1c-2.4,0.2-4.6-0.1-6.9-0.4c-2-0.3-4.3-0.4-6,0.8c-0.4,0.3-0.7,0.6-1.1,1c-0.7,0.7-1.3,0.9-2.3,1.1
				c-1,0.2-2,0.3-3,0.7c-3.9,1.5-7,4.8-8,8.9c-0.2,0.9,1.2,1.3,1.4,0.4c1-3.8,3.9-6.9,7.6-8.1c1.8-0.5,3.6-0.4,5-1.7
				c0.8-0.7,1.4-1.4,2.5-1.6c1-0.3,2.1-0.2,3.1-0.1c2.1,0.2,4.1,0.7,6.3,0.6c2.1-0.1,4.2-0.5,6.3-0.9c2.3-0.4,4.7-0.7,7-0.4
				c2.3,0.3,4.4,1.4,6.5,2.5c3.6,1.9,7.1,2.8,11.1,2.4c3.9-0.4,7.7-1.7,11.6-2.4c1.9-0.4,3.9-0.6,5.8-0.4c2.3,0.2,4.3,0.9,6.3,1.9
				c2,0.9,4,1.8,6.2,2.2c2.3,0.4,4.5,0.3,6.8,0.1c4.6-0.5,9.3-1.6,13.9-0.9c3.8,0.6,7.8,2.3,9.3,6.2
				C209.9,708.7,211.3,708.3,211,707.4L211,707.4z"/>
		</g>
	</g>
	<g>
		<g>
			<path d="M117.5,696c-2.1,0.9-3.7-1.7-4.6-3.2c-0.9-1.5-1.9-2.8-3.6-3.2c-1.7-0.4-4,0.2-5.3-1.2c-0.9-1-0.2-3-1.7-3.5
				c-0.5-0.1-0.7,0.6-0.2,0.7c0.8,0.2,0.6,1.7,0.8,2.3c0.2,0.7,0.7,1.2,1.3,1.6c1.8,1.1,4,0.2,5.8,1.1c1.8,0.9,2.4,3.1,3.6,4.5
				c1.1,1.3,2.7,2.2,4.3,1.5C118.3,696.4,117.9,695.8,117.5,696L117.5,696z"/>
		</g>
	</g>
	<g>
		<g>
			<path d="M213.1,706.1c1.3-3.2-0.3-6.6-2.6-8.9c-2.9-2.8-6.9-3.6-10.7-4.8c-2.1-0.6-4-1.5-5.9-2.6c-1.7-1.1-3.3-2.2-5.2-3
				c-1.8-0.8-3.6-1.1-5.6-0.9c-2.2,0.2-4.4,0.9-6.6,0.9c-3.7-0.1-6.8-2.5-9.7-4.4c-2.9-1.9-6.1-3.4-9.7-3.1c-3.7,0.4-7,2.5-9.8,4.8
				c-3.4,2.7-6.4,5.7-9.8,8.4c-8.1,6.2-18.1,10.9-28.6,9.2c-0.9-0.1-1.4,1.3-0.4,1.4c8.4,1.3,16.8-1.2,23.9-5.5
				c3.5-2.1,6.8-4.6,9.8-7.2c3-2.6,5.9-5.5,9.4-7.6c3.4-2,7.1-2.8,10.8-1.2c3.1,1.3,5.7,3.6,8.7,5.2c1.4,0.7,2.9,1.2,4.4,1.4
				c2,0.2,4-0.2,6-0.6c2.3-0.4,4.4-0.4,6.5,0.5c1.8,0.8,3.4,2,5.1,3c3.9,2.4,8.2,3,12.4,4.8c3.7,1.5,7.9,5.4,6.1,9.8
				C211.3,706.6,212.7,706.9,213.1,706.1L213.1,706.1z"/>
		</g>
	</g>
	<g>
		<g>
			<path d="M144.6,686.3c-5.5-0.5-11-0.9-16.5-1.4c-1.3-0.1-2.5-0.3-3.3-1.5c-0.6-0.8-1-1.7-1.6-2.5c-1.1-1.4-2.5-2.4-4-3.3
				c-3.3-1.8-7.1-2.5-10.6-3.7c-1.9-0.7-3.6-1.5-5.2-2.6c-1.9-1.4-3.6-3.1-5.8-4.2c-4.7-2.4-10.2-2-15.3-1.5c-1,0.1-1,1.6,0,1.5
				c4.7-0.5,10-1,14.4,1.2c2.2,1.1,3.9,2.8,5.8,4.2c1.6,1.2,3.3,2,5.1,2.7c3.6,1.3,7.5,2,10.9,3.8c1.6,0.9,3.1,2,4.1,3.5
				c1.1,1.7,1.9,3.3,4.1,3.7c2.8,0.6,5.8,0.6,8.6,0.8c3.1,0.3,6.3,0.5,9.4,0.8C145.6,687.9,145.6,686.4,144.6,686.3L144.6,686.3z"/>
		</g>
	</g>
	<g>
		<g>
			<path d="M206,711.7c-3.5,3.1-8.6,2.1-12.8,1.2c-2.4-0.6-4.7-1.2-7.2-1.3c-1.2,0-2.3,0-3.4,0.3c-1.3,0.2-2.5,0.7-3.8,0.9
				c-2.6,0.4-5.1-1.2-7.6-1.7c-2.3-0.5-4.6-0.6-6.9-0.3c-2.5,0.3-4.9,0.9-7.3,1.3c-2.6,0.4-5.3,0.6-8,0.6c-5.1,0-10.3-0.5-15.4-0.7
				c-2.6-0.1-5.2-0.2-7.8-0.1c-2.6,0.1-5.1,0.5-7.6,0.7c-2.7,0.3-5.3,0.3-8-0.4c-2.4-0.6-4.8-1.4-7.2-1.7
				c-5.1-0.7-10.2,0.2-15.3,0.8c-1.4,0.2-2.9,0.3-4.3,0.5c-1.2,0.1-2.4,0.2-3.5,0.6c-2.3,0.9-3.9,3-5.9,4.5c-4.2,3.2-9.3,5-14.5,5.3
				c-1,0.1-1,1.6,0,1.5c4.5-0.3,8.8-1.6,12.7-3.8c1.9-1.1,3.6-2.5,5.2-4c0.9-0.8,1.9-1.7,3.1-2.1c1.2-0.4,2.6-0.5,3.9-0.6
				c5.3-0.6,10.7-1.7,16.1-1.5c5.1,0.2,9.7,2.7,14.8,2.6c2.8-0.1,5.5-0.6,8.2-0.8c2.6-0.2,5.2-0.2,7.8-0.1
				c5.2,0.2,10.4,0.7,15.6,0.8c2.6,0,5.2,0,7.8-0.3c2.6-0.3,5-0.9,7.6-1.3c2.6-0.5,5.3-0.6,8-0.2c2.4,0.4,4.6,1.6,7,1.9
				c2.8,0.3,5.4-1.2,8.2-1.2c3,0,5.9,0.9,8.8,1.5c4.3,0.9,9.3,1.2,12.8-1.9C207.8,712.2,206.7,711.1,206,711.7L206,711.7z"/>
		</g>
	</g>
	<g>
		<g>
			<path d="M193.3,713.1c-1.5-0.3-3-0.6-4.5-0.9c-0.4-0.1-0.8,0.1-0.9,0.5c-1.4,6.3-7.7,9.3-12.7,12.4c-2.6,1.6-4.8,3.5-6.9,5.8
				c-1.1,1.2-2.2,2.2-3.9,2.4c-1.7,0.2-3.5,0.2-5.2,0.4c-3.2,0.4-6.4,1.3-9.3,2.6c-1.1,0.5-2.2,1.2-2.9,2.2
				c-0.9,1.3-0.8,2.9-0.7,4.4c0.3,3.2-0.3,6.2-2.5,8.6c-1.9,2-4.5,3.2-6.3,5.4c-3,3.8-4.8,10.3-10.1,11.7c-0.9,0.2-0.5,1.7,0.4,1.4
				c4.8-1.2,6.8-6,9.2-9.9c0.6-1,1.3-2,2.1-2.9c1.1-1.2,2.4-2.1,3.7-3c2.3-1.7,4.1-3.9,4.8-6.8c0.3-1.4,0.4-2.8,0.2-4.2
				c-0.2-2-0.4-3.8,1.5-5.1c2.7-1.9,6.6-2.7,9.8-3.2c3.2-0.5,6.7,0.2,9.2-2.1c1.1-1,2-2.2,3.1-3.2c1.3-1.2,2.7-2.2,4.2-3.1
				c5.4-3.4,12.2-6.7,13.7-13.6c-0.3,0.2-0.6,0.3-0.9,0.5c1.5,0.3,3,0.6,4.5,0.9C193.8,714.8,194.2,713.3,193.3,713.1L193.3,713.1z"
				/>
		</g>
	</g>
	<g>
		<g>
			<path d="M195.9,714.3c-1,1.8-2.9,2.5-4.8,3.1c-2.2,0.7-4.4,1.3-6.7,1.8c-4.6,1.1-9.5,1.7-14.1,0.6c-4-1-7.5-3.8-11.7-4.2
				c-1.9-0.2-3.6,0.3-5.2,1.4c-1.9,1.3-3.5,2.5-5.7,3.2c-4.4,1.4-9.1,1.9-13.7,2.8c-2.5,0.5-5,0.9-7.6,1.4c-2.6,0.5-5,1-7.4-0.4
				c-3.6-2.1-6.5-5.4-9.3-8.4c-2.8-3-5.6-5.9-8.9-8.3c-1.8-1.3-3.6-2.6-5-4.3c-1.4-1.7-1.8-3.6-2.5-5.6c-0.5-1.5-1.2-3.1-2.7-3.8
				c-1.2-0.6-4.3-0.4-4.7-1.9c-0.3-0.9-1.7-0.5-1.4,0.4c0.5,1.4,1.7,1.9,3.1,2.2c0.8,0.2,1.7,0.2,2.5,0.7c0.8,0.5,1.3,1.3,1.6,2.1
				c0.6,1.6,0.9,3.3,1.7,4.9c0.9,1.7,2.3,3.1,3.7,4.3c1.6,1.3,3.3,2.4,4.9,3.7c1.8,1.4,3.4,3,4.9,4.7c3,3.1,5.8,6.4,9.2,9.1
				c1.6,1.3,3.4,2.5,5.5,2.7c2.4,0.3,5.1-0.6,7.4-1c5.1-1,10.2-1.9,15.3-2.9c2.1-0.4,4.2-0.9,6.2-1.9c2-1,3.6-2.8,5.7-3.4
				c2.3-0.6,4.7,0.3,6.8,1.3c2,0.9,4,1.9,6.1,2.6c5.1,1.5,10.5,0.8,15.6-0.4c2.5-0.6,5.1-1.2,7.6-2.1c1.9-0.7,3.8-1.6,4.8-3.5
				C197.6,714.3,196.3,713.5,195.9,714.3L195.9,714.3z"/>
		</g>
	</g>
	<g>
		<g>
			<path d="M147.7,720.2c-1.4,2.6-3.6,4.7-6.2,6.1c-2.7,1.4-5.9,1.3-8.4,3.1c-1,0.7-1.9,1.7-2.8,2.6c-1.1,1.2-2.3,2.2-3.6,3.2
				c-2.3,1.7-4.8,3.1-7.3,4.7c-4.6,3-8.3,6.9-12.5,10.4c-2.1,1.7-4.4,3.3-7,4.1c-1.1,0.3-2.3,0.4-3.3,0.8c-1.1,0.5-1.5,1.3-1.9,2.4
				c-0.3,1-0.6,2-1.8,2.3c-0.7,0.2-1.6,0.1-2.3,0c-1.4-0.2-2.7-0.4-4,0c-2.4,0.7-4.4,2.5-5.2,4.9c-0.2,0.5,0.6,0.7,0.7,0.2
				c1-2.8,3.7-4.7,6.7-4.6c2,0.1,4.6,1,5.9-0.9c0.9-1.2,0.7-2.9,2.3-3.6c1.2-0.5,2.6-0.6,3.9-1c2.2-0.8,4.2-2.1,6.1-3.6
				c4.3-3.4,7.9-7.5,12.5-10.5c2.5-1.6,5.1-3,7.4-4.8c1-0.7,2-1.5,2.9-2.4c1.1-1.1,2.1-2.3,3.4-3.3c1.5-1.2,3.3-1.5,5.1-2
				c1.4-0.4,2.8-0.9,4.1-1.6c2.5-1.4,4.6-3.5,6-6C148.6,720.1,148,719.7,147.7,720.2L147.7,720.2z"/>
		</g>
	</g>
	<g>
		<g>
			<path d="M213.9,712.1c2.8-0.5,4.1,2.9,4.7,5c0.5,1.9,1,4,2.4,5.4c1.5,1.5,3.3,1.2,5.1,0.7c1.3-0.4,2.8-0.9,3.4,0.8
				c0.4,1.2,0.8,2.4,1.3,3.6c2,4.4,5.2,8.2,9.2,11c1,0.7,2.1,1.4,3.2,1.9c0.9,0.5,2.1,1.1,3.2,0.9c0.8-0.2,1.2-0.7,1.6-1.3
				c0.3-0.4,0.4-1,0.8-1.4c0.8-0.7,1.5,0,1.9,0.7c0.6,1,0.9,2.1,1.7,2.9c0.7,0.7,1.6,1.2,2.4,1.6c2,1,4.6,1.6,5.7,3.8
				c0.2,0.4,0.9,0.1,0.6-0.4c-0.9-1.8-2.7-2.6-4.5-3.4c-0.9-0.4-1.9-0.8-2.8-1.4c-1-0.7-1.6-1.5-2.1-2.6c-0.6-1.2-1.8-3.2-3.4-2
				c-0.8,0.6-0.9,1.7-1.6,2.3c-1.3,1.2-3.8-0.6-5-1.4c-4.7-2.8-8.5-7.1-10.7-12.1c-0.7-1.6-0.9-4.7-3.1-4.8
				c-2.4-0.2-4.7,2.2-6.8-0.1c-2.5-2.7-2.1-11.6-7.7-10.5C213.3,711.5,213.5,712.2,213.9,712.1L213.9,712.1z"/>
		</g>
	</g>
	<g>
		<g>
			<path d="M210.2,714.6c0.9,2.1,2.4,3.8,4.3,4.9c2.3,1.3,4.7,1.2,7.3,1.4c3.3,0.2,6.1,2,9.4,2.5c2.9,0.4,5.8,0.2,8.7,0.3
				c12.6,0.1,24.8,4.8,37.4,3.8c6.9-0.6,13.3-3.2,19.6-6c0.4-0.2,0.1-0.8-0.4-0.6c-5.7,2.5-11.4,5-17.6,5.7
				c-5.9,0.7-11.8,0-17.6-0.9c-5.7-0.9-11.4-2.1-17.2-2.6c-2.9-0.2-5.8-0.2-8.7-0.2c-3.1,0-5.8-0.5-8.7-1.6c-1.4-0.5-2.7-1-4.2-1.1
				c-1.7-0.2-3.4,0-5-0.3c-2.9-0.6-5.4-2.7-6.5-5.5C210.8,714,210.1,714.2,210.2,714.6L210.2,714.6z"/>
		</g>
	</g>
	<g>
		<g>
			<path d="M210.1,708.6c2.8-0.2,5.1-1.7,7.6-2.8c2.7-1.2,6.2-2,8.5,0.3c1,1.1,1.7,2.5,2.4,3.8c0.9,1.5,1.7,3,2.5,4.6
				c1.5,2.8,3,5.6,4.4,8.4c3,5.9,5.7,11.9,8.2,18c0.9,2.2,1.8,4.4,3.3,6.3c1.8,2.2,4.4,3.1,6.9,4.3c5.1,2.5,7.2,9.2,4,14
				c-0.3,0.4,0.4,0.8,0.6,0.4c2.4-3.7,2.1-8.8-0.6-12.2c-1.7-2.2-4.2-3.1-6.7-4.2c-3-1.4-4.6-3.8-6-6.7c-2.8-6.2-5.3-12.5-8.3-18.6
				c-1.5-3.1-3.1-6.2-4.8-9.3c-1.6-2.9-3-6.1-5-8.7c-4.6-6.1-11.9,1.1-17.2,1.6C209.6,707.9,209.6,708.6,210.1,708.6L210.1,708.6z"
				/>
		</g>
	</g>
	<g>
		<g>
			<path d="M208.1,715.6c3.1,3.3,7.3,5.4,10.2,8.9c1.7,2,2.4,4.4,2.3,7c-0.1,2.8-0.9,5.6-0.4,8.5c0.4,2.5,1.8,4.7,3.2,6.8
				c1.6,2.3,3.2,4.6,4.1,7.3c1.9,5.3,2,11.1,3.8,16.5c1.6,4.9,4.5,9.5,9.5,11.4c0.9,0.3,1.3-1.1,0.4-1.4c-4.7-1.7-7.3-6.5-8.6-11
				c-1.6-5.4-1.7-11.1-3.8-16.4c-0.9-2.4-2.3-4.6-3.8-6.7c-1.5-2.2-3-4.4-3.3-7.1c-0.3-2.9,0.5-5.7,0.5-8.6c0-2.3-0.7-4.4-2-6.3
				c-2.9-4-7.6-6.2-10.9-9.8C208.5,713.8,207.5,714.9,208.1,715.6L208.1,715.6z"/>
		</g>
	</g>
	<g>
		<g>
			<path d="M204.5,714.7c-2.5,5-5,10-7.5,15c-1.2,2.4-2.3,4.7-2.6,7.4c-0.4,2.6-0.4,5.1-1.7,7.4c-2.2,4-6.3,6.8-9.9,9.6
				c-3.4,2.7-6.9,5.3-10,8.4c-3.4,3.4-6.2,7.2-7.9,11.7c-0.3,0.9,1.1,1.3,1.4,0.4c3.1-8.4,10.6-14,17.4-19.3c3.4-2.6,7-5.1,9.5-8.7
				c1.3-1.9,2.1-3.9,2.3-6.2c0.2-1.3,0.2-2.7,0.5-4c0.3-1.4,0.9-2.8,1.5-4.2c2.6-5.6,5.5-11.1,8.3-16.7
				C206.3,714.6,205,713.8,204.5,714.7L204.5,714.7z"/>
		</g>
	</g>
	<g>
		<g>
			<path d="M206.7,713c-2,0.6-3.9,1.5-5.6,2.7c-1.7,1.1-2.8,2.3-2.7,4.4c0.2,3.9,0.9,8.2,2.6,11.7c1.7,3.3,4.6,5.4,7.4,7.7
				c1.4,1.2,2.9,2.4,3.9,3.9c1.1,1.6,1.5,3.6,2.7,5.1c1.5,1.8,3.5,2.8,4.2,5.2c0.7,2.3,0.4,4.7,0.2,7c-0.1,1,1.4,1,1.5,0
				c0.4-3.4,0.7-7.3-1.6-10.2c-1.1-1.4-2.8-2.3-3.7-3.9c-0.9-1.6-1.4-3.3-2.5-4.8c-2.1-2.6-4.9-4.3-7.4-6.5c-3-2.7-4.4-6.1-5.1-10
				c-0.2-1.1-0.4-2.3-0.5-3.5c-0.1-1.3-0.5-2.8,0.5-3.8c1.6-1.7,4.4-2.8,6.5-3.5C208,714.1,207.6,712.7,206.7,713L206.7,713z"/>
		</g>
	</g>
	<g>
		<g>
			<path d="M211.4,701.3c1.2-3.4,5.1-4.3,8.4-4.3c3.7,0,7.4,0.4,11.2,0.5c7.5,0.1,15.1-0.4,22.6-1.5c3.7-0.5,7.3-1.2,10.9-2.1
				c1.3-0.3,2.5-0.6,3.6-1.4c1.1-0.8,1.7-2,2.2-3.3c0.6-1.4,1.1-2.8,2.8-3c1.6-0.3,3.2,0.3,4.8,0.2c2.9-0.2,5.5-1.7,8-3.1
				c1.5-0.8,3.1-1.5,4.7-1.9c1.7-0.3,3.4-0.3,5.1-0.3c3.1,0.1,6.3,0,8.9-2c0.8-0.6-0.3-1.7-1.1-1.1c-2.5,2-6,1.6-9,1.6
				c-3,0-5.7,0.5-8.4,1.9c-2.7,1.4-5.5,3.3-8.7,3.4c-2.7,0.1-5.8-1-7.6,1.7c-0.8,1.1-1,2.5-1.7,3.6c-0.9,1.5-2.5,1.9-4.1,2.3
				c-3.8,0.9-7.6,1.6-11.4,2.1c-7.7,1.1-15.6,1.6-23.4,1.4c-4.1-0.1-8.4-0.9-12.4-0.2c-3,0.5-5.8,2.2-6.9,5.2
				C209.6,701.9,211,702.2,211.4,701.3L211.4,701.3z"/>
		</g>
	</g>
	<g>
		<g>
			<path d="M212.9,701.8c0.5-5,0.7-10.1,0.5-15.2c-0.1-1.9-0.1-4.1-1.2-5.7c-1-1.4-2.6-2.1-4.1-2.6c-4.1-1.5-8.5-1.7-12.9-2.2
				c-2.3-0.3-4.5-0.6-6.7-1.3c-2.2-0.7-4.1-1.9-6.1-3.1c-1.7-1.1-3.5-2.2-5.5-2.8c-2.1-0.7-4.4-0.7-6.6-1c-2.4-0.2-4.6-0.7-6.7-1.8
				c-1.7-0.9-3.4-2-5-3.1c-3.2-2.2-6.4-4.3-10.3-5.1c-1.8-0.3-3.7-0.5-5.5-0.9c-1-0.2-2-0.5-2.9-1.1c-1-0.6-1.7-1.4-2.4-2.2
				c-1.4-1.5-3.1-1.7-5.1-2c-1.4-0.2-2.7-0.4-3.7-1.5c-0.8-0.9-1.2-2.1-1.7-3.1c-2.2-4.8-4.8-9.4-8-13.6c-0.3-0.4-0.9,0-0.6,0.4
				c2.7,3.7,5.1,7.7,7.1,11.8c0.8,1.7,1.4,3.7,2.7,5.1c1.2,1.3,2.8,1.6,4.4,1.8c1.1,0.1,2.2,0.2,3.2,0.8c1,0.6,1.7,1.7,2.5,2.4
				c1.2,1.1,2.7,1.6,4.3,2c1.9,0.4,3.8,0.6,5.6,0.9c2,0.4,3.9,1.2,5.6,2.2c3.3,1.9,6.3,4.5,9.8,6.1c1.7,0.8,3.5,1.3,5.4,1.6
				c2.5,0.3,5,0.3,7.4,1c4.1,1.2,7.3,4.4,11.3,5.8c4.1,1.4,8.4,1.6,12.6,2.1c2.5,0.3,5,0.7,7.3,1.6c1.2,0.4,2.5,1,3.3,1.9
				c1,1.1,1.2,2.5,1.3,3.9c0.4,5.6,0.1,11.4-0.4,17C212.1,702.3,212.9,702.3,212.9,701.8L212.9,701.8z"/>
		</g>
	</g>
	<g>
		<g>
			<path d="M177.6,668.8c-3.4,0.6-6.9,1.1-10.3,1.7c-2.6,0.4-5.1,0.8-7.2,2.5c-1.2,1-2.3,1.9-3.8,2.3c-1.5,0.4-3,0.3-4.5,0.2
				c-2.5-0.2-5-0.4-7.5,0.4c-2.4,0.7-4.4,2.2-6.5,3.5c-2.4,1.6-4.8,2.8-7.7,3.1c-1.3,0.2-2.7,0.2-4,0.7c-1.2,0.4-2.3,1.1-3.5,1.6
				c-3,1.5-6.3,1.6-9.6,1.9c-6.6,0.8-13.1,2.8-18.9,6c-0.4,0.2,0,0.9,0.4,0.6c5.6-3,11.8-5,18.1-5.8c2.8-0.3,5.7-0.3,8.3-1.2
				c1.2-0.4,2.4-1,3.5-1.6c1.5-0.8,3-1.2,4.7-1.4c2.6-0.3,4.8-0.9,7.1-2.2c2.2-1.3,4.3-2.9,6.6-4c2.6-1.2,5.3-1.2,8.1-1
				c2.3,0.2,4.8,0.3,7-0.7c1.4-0.7,2.4-2,3.7-2.7c1.5-0.9,3.2-1.1,4.8-1.4c3.8-0.6,7.5-1.3,11.3-1.9
				C178.3,669.5,178.1,668.7,177.6,668.8L177.6,668.8z"/>
		</g>
	</g>
	<g>
		<g>
			<path d="M213.4,692.9c-0.3-2.9-0.4-5.9,0.5-8.7c0.4-1.4,1.2-2.7,2.3-3.7c1.4-1.2,3.2-1.6,4.9-2.4c1.4-0.7,2.5-1.9,4-2.7
				c1.7-0.9,3.5-0.8,5.3-0.4c2.8,0.6,5.7,1.8,8.6,0.6c1.4-0.6,2.7-1.5,4.1-2.2c2-0.9,4-0.5,6-0.4c3.3,0.1,5.7-1.7,8.6-3
				c1.8-0.8,3.4-0.7,5.3-0.6c1.3,0.1,2.4-0.2,3.4-1c1-0.8,1.7-2,2.4-3c1.2-1.6,2.7-2.3,4.7-2.5c4.6-0.5,9.3,0,13.9,0.4
				c4.6,0.4,9.3,0.8,13.9,1.1c0.5,0,0.5-0.7,0-0.8c-4.3-0.4-8.6-0.7-12.9-1.1c-4.3-0.4-8.5-0.8-12.8-0.6c-1.7,0.1-3.4,0.1-5,0.9
				c-1.2,0.6-2,1.6-2.8,2.6c-0.9,1.2-1.8,2.7-3.4,3.1c-1.1,0.3-2.2-0.1-3.2-0.1c-0.8,0-1.5,0.1-2.3,0.3c-3.2,0.9-5.8,3.5-9.3,3.5
				c-1.9,0-3.8-0.5-5.7,0.1c-1.5,0.4-2.8,1.4-4.2,2.1c-3.5,1.9-6.7,0.1-10.3-0.4c-1.4-0.2-2.8-0.1-4.1,0.5c-1.5,0.7-2.7,1.9-4.1,2.8
				c-1.7,1-3.6,1.3-5.1,2.5c-1.1,0.9-1.9,2-2.4,3.3c-1.2,3.1-1.1,6.6-0.8,9.8C212.7,693.4,213.4,693.4,213.4,692.9L213.4,692.9z"/>
		</g>
	</g>
	<g>
		<g>
			<path d="M212.6,704.3c3-6.2,0.3-12.9-2.1-18.9c-1.3-3.1-3.8-7.6-1.1-10.5c2.1-2.3,5.7-2.9,8.4-3.9c3.1-1.2,6-2.6,8.9-4.2
				c3-1.7,5.8-3.9,8.9-5.6c3.3-1.8,6.6-1.9,10.2-1.6c3.1,0.2,6.2,0.4,9.1-1.1c5.3-2.8,7.4-9.2,12.3-12.5c0.4-0.3,0-0.9-0.4-0.6
				c-4.5,3-6.6,8.5-11,11.6c-2.9,2.1-6.2,2.1-9.6,1.8c-3.3-0.2-6.4-0.4-9.5,1c-3.2,1.4-5.9,3.7-8.9,5.4c-3.1,1.9-6.4,3.5-9.9,4.9
				c-2.7,1.1-5.8,1.7-8.1,3.4c-2.3,1.6-2.9,4.1-2.2,6.8c1,4,3.2,7.7,4.4,11.7c1.2,3.9,1.6,8.2-0.2,12
				C211.8,704.3,212.4,704.7,212.6,704.3L212.6,704.3z"/>
		</g>
	</g>
	<g>
		<g>
			<path d="M252,659.2c3.2-0.1,5.4-2.6,8.1-4c3.7-1.9,7.9-0.8,11.8-1.3c6.4-0.8,12.2-4.4,15.7-9.7c0.3-0.4-0.4-0.8-0.6-0.4
				c-3.7,5.5-9.9,9.2-16.6,9.5c-3.3,0.2-6.9-0.4-10,1c-2.8,1.3-5.1,4.1-8.4,4.2C251.5,658.5,251.5,659.3,252,659.2L252,659.2z"/>
		</g>
	</g>
	<g>
		<g>
			<path d="M211.6,711c3.5-5.8,6.3-12.2,7-19c0.4-3.4,0.2-6.8-0.6-10.2c-0.8-3.4-2-6.8-2.3-10.4c-0.2-3.2,0.4-6.7,2.7-9.1
				c2.1-2.2,5.3-3,8.1-4.1c2.7-1,4.9-2.3,6.8-4.6c1-1.2,1.9-2.4,3.3-3.2c1.4-0.8,3-1.2,4.6-1.7c2.5-0.9,4.4-2.2,5.7-4.5
				c1.3-2.2,1.9-4.7,3.1-7c1.5-2.8,3.8-4,6.9-4.4c2.7-0.4,5.5-0.5,7.7-2.3c1.2-1,2.1-2.3,3.3-3.1c1.6-1.1,3.5-1,5.4-0.9
				c3,0.1,5.5-0.8,7.8-2.7c4.7-4,8-10,10-15.7c1.3-3.7,1.8-7.5,2.6-11.4c0.8-3.8,2.6-6.9,4.6-10.1c1.9-3.1,3.3-6.1,3.8-9.8
				c0.5-3.7,0.7-8.3,4.3-10.4c0.4-0.2,0-0.9-0.4-0.6c-2.3,1.4-3.5,3.9-4.1,6.5c-0.7,3.6-0.7,7.1-2.3,10.4c-1.4,2.9-3.4,5.5-4.8,8.4
				c-1.5,3.1-1.9,6.4-2.5,9.8c-1.2,6.9-4.1,13.5-8.4,19c-2,2.5-4.4,5.1-7.7,5.8c-3.1,0.7-6.2-0.6-9,1.5c-1,0.8-1.9,1.9-2.9,2.8
				c-1.4,1.2-3,1.7-4.8,2c-2.7,0.4-5.6,0.5-7.8,2.3c-4.1,3.3-3.6,9.8-8,12.8c-2.5,1.7-5.8,1.8-8.2,3.6c-1.1,0.9-2,2-2.9,3.1
				c-1,1.2-2.2,2.2-3.6,3c-2.6,1.3-5.4,1.9-8,3.3c-2.4,1.2-4.2,3.1-5.1,5.7c-2.6,7.4,2.1,14.8,2.3,22.2c0.3,8.2-3,16.1-7.1,23
				C210.7,711,211.4,711.4,211.6,711L211.6,711z"/>
		</g>
	</g>
	<g>
		<g>
			<path d="M287.9,614.4c1-0.6,1.9-1.4,2.7-2.3c0.9-1,1.4-2.2,2.2-3.2c0.8-1,2.2-1.3,3.2-2.1c0.9-0.7,1.6-1.5,2.1-2.4
				c0.3-0.5,0.7-1.2,1.2-1.5c0.8-0.4,1.7,0,2.4,0.3c1,0.4,1.9,0.7,3,0.5c1.9-0.3,3.5-1.6,4-3.4c0.1-0.5-0.6-0.7-0.7-0.2
				c-0.8,2.4-3.3,3.4-5.6,2.5c-1-0.4-2.1-0.9-3.2-0.5c-0.8,0.3-1.3,1-1.7,1.7c-0.7,1.1-1.4,2-2.5,2.7c-0.9,0.6-1.9,0.9-2.7,1.7
				c-0.8,0.9-1.3,2-2,2.9c-0.8,1-1.8,1.8-2.9,2.5C287.1,614,287.4,614.7,287.9,614.4L287.9,614.4z"/>
		</g>
	</g>
</g>
</svg>
