<?xml version="1.0" encoding="utf-8"?>
<!-- Generator: Adobe Illustrator 24.3.0, SVG Export Plug-In . SVG Version: 6.00 Build 0)  -->
<svg version="1.1" id="Layer_1" xmlns="http://www.w3.org/2000/svg" xmlns:xlink="http://www.w3.org/1999/xlink" x="0px" y="0px"
	 viewBox="0 0 300 600" style="enable-background:new 0 0 300 600;" xml:space="preserve">
<style type="text/css">
	.st0{fill:#FF1D25;}
	.st1{fill:none;}
	.st2{fill:#FFFFFF;}
	.st3{fill:#FFFFFF;stroke:#FFFFFF;stroke-width:0.75;stroke-miterlimit:10;}
</style>
<g>
	<g>
		<path class="st0" d="M152.7,316.2c-7.4,15.8-10,33.7-7.1,50.9c1.5,9.3,5,18,7.5,27c1.2,4.6,2.1,9.2,1.9,14
			c-0.2,4.7-1.1,9.3-2.9,13.6c-0.8,2-2,3.9-2.7,6c-0.7,2-0.9,4.1-1.2,6.2c-0.6,4.5-0.7,9.1-0.5,13.7c0.2,4.3,0.7,8.7,1.6,12.9
			c1,4.6,2.2,9.1,3,13.8c0.8,4.9,0.8,9.8,0,14.8c-0.7,4.6-1.8,9.2-2.7,13.8c-0.9,4.5-1.5,9.1-1.6,13.7c0,5,0.5,9.9,0.7,14.8
			c0.5,9.8,0.5,19.6,0.6,29.3c0.1,10.1,0.3,20.1,0.4,30.2c0,2.5,0.1,5,0.1,7.6c0,0.5,0.8,0.5,0.8,0c-0.3-19.8-0.4-39.6-0.9-59.4
			c-0.2-9.7-1.8-19.6-0.6-29.2c1.1-9.2,4.3-18.1,4.5-27.4s-3.3-18.1-4.5-27.3c-0.6-4.5-0.8-9-0.7-13.5s0.3-9.5,1.8-13.8
			c0.7-2.1,1.8-3.9,2.6-5.9c0.9-2.1,1.5-4.2,2-6.4c1-4.2,1.2-8.6,0.8-12.9c-1-9.2-4.8-18-7.3-26.9c-4.7-17.3-3.9-35.9,2.4-52.7
			c0.8-2.2,1.7-4.4,2.8-6.5C153.5,316.2,152.9,315.8,152.7,316.2L152.7,316.2z"/>
	</g>
</g>
<g>
	<path class="st1" d="M170.7,236.8c0.9-11,1.7-22,2.6-33c1.1-13.4,2.1-26.9,1.2-40.4c-0.3-4.5-0.9-9-0.9-13.6
		c-0.1-6.9,0.9-13.8,1.9-20.7c1.8-12.3,3.6-24.6,5.4-36.9c0.5-3.1,0.9-6.1,0.8-9.2c-0.1-4-1-8-1.5-12c-0.6-5.2-0.3-10.6,0.8-15.7
		c0.6-2.9,2.5-6.3,5.4-5.8c2.1-8.8,7.8-16.7,15.5-21.4c5-3.1,11.3-5.3,13.7-10.6c0.5-1.1,0.8-2.3,1.6-3.2c1-1.1,2.6-1.5,4.1-2.1
		c5.1-2,8.8-7.1,14.2-8.3c7.8-1.7,15.7,5.4,23.3,3.1"/>
	<g>
		<path class="st2" d="M171,236.8c1-12.7,2-25.3,3-38c0.9-12.4,1.6-24.9,0.6-37.4c-0.5-6.2-1-12.3-0.5-18.6
			c0.5-6.5,1.6-12.9,2.5-19.3c0.9-6.3,1.9-12.6,2.8-18.9c0.9-6,2.1-12.1,2.6-18.2c0.6-7-1.7-13.7-1.7-20.7c0-3.5,0.3-7,1.1-10.4
			c0.5-2.3,2-5.9,4.9-5.5c0.2,0,0.4,0,0.5-0.3c1.5-6.3,4.8-12,9.4-16.5c2.2-2.2,4.8-4,7.5-5.5c2.5-1.4,5.1-2.7,7.5-4.4
			c2.1-1.5,4-3.4,5-5.9c0.8-1.9,1.5-3.2,3.5-4c1.3-0.5,2.6-1,3.9-1.7c2.6-1.5,4.8-3.5,7.3-5.1c2.7-1.7,5.5-2.7,8.7-2.4
			c6.6,0.6,12.7,5.2,19.5,3.3c0.5-0.1,0.3-0.9-0.2-0.7c-6.3,1.8-12.3-2.4-18.5-3.2c-2.8-0.4-5.5,0-8,1.3c-2.8,1.4-5,3.5-7.6,5.3
			c-1.3,0.9-2.7,1.6-4.2,2.2c-1.4,0.5-2.8,1-3.8,2.2c-0.9,1.1-1.2,2.6-1.9,3.9c-0.8,1.4-1.9,2.5-3.1,3.5c-2.4,2-5.2,3.3-7.9,4.8
			c-2.7,1.5-5.2,3.1-7.4,5.2c-5.1,4.7-8.8,10.9-10.4,17.6c0.2-0.1,0.3-0.2,0.5-0.3c-4.6-0.6-5.8,5.6-6.3,8.9
			c-0.9,6.1-0.5,12.1,0.5,18.1c0.5,3.3,0.9,6.5,0.7,9.8c-0.2,3.4-0.8,6.8-1.3,10.1c-1,6.5-1.9,12.9-2.9,19.4
			c-1.9,12.8-4.6,25.7-3.7,38.6c0.4,6.4,1.1,12.7,1.1,19.1c0,6.6-0.3,13.1-0.7,19.7c-1,14.6-2.3,29.2-3.4,43.9
			C170.2,237.3,171,237.3,171,236.8L171,236.8z"/>
	</g>
</g>
<g>
	<path class="st1" d="M175.2,131.2c-1.4-12.2-4.1-24.2-8-35.8c-0.7-2.2-1.5-4.4-1.2-6.7c0.4-2.5,2-4.5,3-6.8
		c1.7-3.8,1.7-8.1,1.3-12.2c-1.2-13.2-5.6-26.1-12.7-37.3c-1.5-2.3-3.1-4.6-5.3-6.2s-5-2.4-7.2-4.1c-3.6-2.7-5.4-7.1-8.8-10
		c-3.2-2.6-7.5-3.5-11.6-4.4c-8.6-1.7-17.4-3.4-25.9-1.8c-4.2,0.8-8.4,2.4-12.5,1.3c-1.1-0.3-2.1-0.8-3.2-0.8
		c-1.5-0.1-2.8,0.6-4.2,1c-3.1,1-6.5,0.8-9.5-0.4c-1.6-0.7-3.1-1.7-4.8-2.3C59.3,2.8,53.3,4.4,47.9,6"/>
	<g>
		<path class="st2" d="M175.5,131.2c-0.9-7.8-2.3-15.5-4.2-23.1c-1-3.9-2.1-7.7-3.3-11.5c-0.6-2-1.5-4-1.6-6.1s0.6-3.9,1.6-5.6
			c1.7-3.1,2.8-6,3-9.6c0.2-3.5-0.2-7.1-0.8-10.6c-1.1-7.1-3.1-14-5.9-20.6c-1.4-3.3-3.1-6.6-5-9.7c-1.7-2.8-3.5-5.8-6.2-7.9
			c-2.7-2.2-6.3-3-8.8-5.4c-2.3-2.2-3.9-5-6-7.4c-4.6-5.1-12.2-5.9-18.6-7c-7.7-1.4-15.4-2-23.1-0.3c-2,0.5-4,1-6,1.1
			c-2,0.2-3.8-0.3-5.7-0.8c-1.7-0.5-3.1-0.3-4.8,0.3c-1.9,0.6-3.7,1.1-5.7,1c-2.1-0.1-4.1-0.6-5.9-1.6c-1.6-0.8-3-1.7-4.7-2.2
			c-3.3-1-6.9-0.7-10.3,0c-1.8,0.4-3.7,0.9-5.5,1.4c-0.5,0.1-0.3,0.9,0.2,0.7c3.7-1.1,7.5-2.2,11.4-2.1c2,0.1,4,0.5,5.8,1.3
			c1.5,0.7,2.9,1.6,4.5,2.2c3.3,1.2,6.8,1.1,10.1,0c1.8-0.6,3.3-0.9,5.2-0.3c1.8,0.5,3.4,0.8,5.3,0.7c3.7-0.2,7.3-1.6,10.9-2
			c4-0.5,8-0.3,12,0.2s7.9,1.3,11.8,2c3.2,0.7,6.6,1.4,9.5,3.1c3,1.8,4.8,4.7,6.9,7.4c1.9,2.5,4,4.2,6.8,5.5
			c1.6,0.8,3.2,1.5,4.6,2.6c1.4,1.1,2.6,2.6,3.6,4.1c2,2.9,3.8,6,5.3,9.1c3.2,6.5,5.6,13.4,7.1,20.5c0.7,3.5,1.2,7.1,1.4,10.7
			c0.2,3.7,0,7.6-1.7,11c-0.8,1.6-1.9,3.2-2.4,4.9c-0.6,1.8-0.4,3.6,0.1,5.4c1.1,4.1,2.6,8.1,3.7,12.2c2.3,8.6,4,17.3,5,26.1
			C174.9,131.7,175.6,131.7,175.5,131.2L175.5,131.2z"/>
	</g>
</g>
<g>
	<path class="st1" d="M181.4,80.7c-5.2-6.6-6.1-15.5-9.1-23.4c-2.5-6.6-6.6-12.5-11.9-17.2c-1.5-1.4-3.3-2.7-5.2-3.2
		c-3.4-0.9-7.1,0.4-10.5-0.3c-3.6-0.7-6.5-3.5-10.1-4.1c-5.4-0.9-10.2,3.4-15.4,5.4c-3.1,1.2-6.5,1.6-9.8,2
		c-8.1,0.9-16.2,1.8-24.3,2.7"/>
	<g>
		<path class="st2" d="M181.6,80.5c-5-6.4-6-14.7-8.7-22.1c-2.6-7.3-7.1-14-13-19c-1.3-1.1-2.8-2.2-4.5-2.7c-1.9-0.6-4-0.4-6-0.3
			c-2.2,0.2-4.4,0.2-6.5-0.6c-1.9-0.7-3.6-1.8-5.4-2.7c-3.3-1.5-6.5-1.3-9.8,0.1c-3.6,1.5-6.8,3.9-10.6,4.9
			c-5.1,1.4-10.5,1.6-15.7,2.2c-5.4,0.6-10.9,1.2-16.3,1.8c-0.3,0-0.3,0.5,0,0.4c9.2-1,18.4-1.9,27.5-3.1c4-0.6,7.5-1.8,11-3.7
			s7.3-4.1,11.4-3.2c3.5,0.8,6.4,3.5,10,4.1c2.1,0.3,4.1,0,6.2-0.1c2.3-0.1,4.4,0.2,6.4,1.5c3.5,2.2,6.4,5.6,8.8,8.8
			c2.4,3.3,4.4,6.8,5.8,10.6c2.9,7.7,3.8,16.4,9,23.1C181.4,81.1,181.8,80.7,181.6,80.5L181.6,80.5z"/>
	</g>
</g>
<g>
	<path class="st1" d="M155.4,292.8c-0.5-2-0.9-4.2,0.1-6c0.6-1.1,1.6-1.9,2.6-2.7c3.7-3.2,6.8-7.5,8.7-12c2.3-5.4,3.1-11.3,3.6-17.2
		c0.3-2.9,0.5-5.9-0.4-8.6c-0.6-1.9-1.7-3.8-1.3-5.7c0.6-3.4,4.8-4.5,7.5-6.7c1.7-1.3,3-3.3,5-4.2s4.3-0.6,6.4-0.7
		c2.2-0.1,4.6-0.9,5.3-3c0.3-0.9,0.2-2,0.4-2.9c0.8-4.5,7.5-6.3,7.8-10.9"/>
	<g>
		<path class="st2" d="M155.8,292.7c-0.5-2.1-1-4.4,0.4-6.3c1-1.4,2.6-2.4,3.8-3.6c2.6-2.6,4.8-5.6,6.4-8.9
			c1.7-3.4,2.7-7.2,3.4-10.9c0.7-3.8,1.2-7.8,1.2-11.6c0-1.9-0.2-3.8-0.8-5.7c-0.6-1.8-1.7-3.8-0.9-5.7c1.1-2.8,4.7-3.8,6.9-5.4
			c1.3-1,2.3-2.3,3.5-3.3c1.7-1.5,3.7-1.7,5.9-1.7c2.5,0,5.9-0.1,7.4-2.6c0.9-1.6,0.3-3.5,1.2-5c0.7-1.3,1.8-2.3,2.9-3.3
			c1.9-1.7,4.1-3.5,4.4-6.2c0-0.5-0.7-0.5-0.8,0c-0.3,2.8-2.9,4.5-4.8,6.3c-0.9,0.8-1.7,1.6-2.3,2.6c-0.8,1.3-0.7,2.6-0.9,4
			c-0.6,4.4-6.4,3.3-9.5,3.6c-3.6,0.4-5.2,3.5-8,5.4c-2.1,1.4-4.9,2.4-6.3,4.7c-1.9,3.1,0.8,6.5,1.2,9.7c0.5,4.1-0.2,8.5-0.8,12.6
			c-0.6,4-1.6,8.1-3.3,11.8c-1.8,4-4.5,7.6-7.7,10.5c-1.3,1.2-2.8,2.2-3.4,3.8c-0.7,1.8-0.2,3.8,0.2,5.6
			C155.1,293.4,155.9,293.2,155.8,292.7L155.8,292.7z"/>
	</g>
</g>
<g>
	<path class="st1" d="M194,222.9c1.4,0.5,3.1-0.3,3.6-1.7"/>
	<g>
		<path class="st2" d="M193.9,223.3c1.6,0.5,3.5-0.4,4.1-1.9c0.1-0.2-0.1-0.4-0.3-0.5s-0.4,0.1-0.5,0.3c-0.5,1.2-2,1.8-3.2,1.4
			C193.6,222.4,193.4,223.1,193.9,223.3L193.9,223.3z"/>
	</g>
</g>
<g>
	<path class="st1" d="M155.7,293c0.1-8.4,0.7-17.1,0.1-25.5c-0.5-6.8,1.1-13.7,1.1-20.6c-0.2-13.7,0.3-28.4-2.3-41.8
		c-0.3-1.4-0.9-3-2.3-3.1c0-24.5,0.1-48.9,0.1-73.4c0-6.6,0-13.4-2.4-19.6c-1.5-3.9-3.9-7.8-2.8-11.8c0.6-2.1,2-3.8,2.4-5.9
		c0.7-3.7-2-7.1-2.6-10.8c-0.4-2.5,0.2-5,0.8-7.4c2.5-10.3,5.7-21.6,14.4-27.6c8.4-5.7,20.7-5.7,26.6-13.9c1.7-2.4,3.1-5.6,6-6.3
		c1.6-0.4,3.2,0.1,4.8,0.3c4.8,0.6,9.5-1.6,14.2-2.5c4.5-0.8,9.1-0.5,13.6-0.1c11,0.8,22.1,1.6,33.1,2.5"/>
	<g>
		<path class="st2" d="M156.1,293c0.1-6.4,0.5-12.9,0.4-19.3c0-3.2-0.4-6.4-0.3-9.6c0-3.2,0.4-6.4,0.7-9.5
			c0.6-6.2,0.4-12.4,0.4-18.6c0-6.2-0.1-12.4-0.6-18.6c-0.3-3.4-0.7-6.7-1.2-10.1c-0.3-1.9-0.5-5.4-3-5.8c0.1,0.1,0.2,0.2,0.3,0.4
			c0-19.9,0.1-39.8,0.1-59.6c0-5,0-10,0-15c0-4.4-0.1-8.9-0.9-13.2c-0.4-2.3-1.1-4.4-2-6.6c-0.8-2-1.8-4-2.2-6.1
			c-0.6-2.6,0.1-4.7,1.3-7c0.8-1.6,1.4-3.2,1.3-5c-0.2-1.8-0.9-3.5-1.6-5.2c-0.8-2.2-1.4-4.3-1.2-6.6c0.4-4,1.7-8.1,2.9-12
			c2.2-7.2,5.3-14.7,11.6-19.3c5.6-4.1,12.6-5.3,18.8-8c2.9-1.3,5.8-3,7.9-5.5c2.3-2.7,3.8-7.4,8.1-7.2c2.3,0.1,4.4,0.7,6.7,0.4
			c2-0.2,4-0.8,6-1.3c2.4-0.6,4.8-1.3,7.2-1.5s4.9-0.2,7.3,0c9.8,0.5,19.5,1.4,29.3,2.1c2.5,0.2,5,0.4,7.5,0.6c0.5,0,0.5-0.7,0-0.8
			c-10.1-0.7-20.1-1.5-30.2-2.2c-5-0.4-10-0.9-15-0.3c-4.5,0.6-8.8,2.6-13.4,2.8c-2.3,0.1-4.5-0.7-6.7-0.5c-1.6,0.2-2.8,1.1-3.8,2.3
			c-1.1,1.3-1.9,2.8-2.9,4.2c-1.1,1.5-2.4,2.8-3.9,3.8c-5.7,4-12.9,5.1-19.2,8.1c-6.6,3.2-10.9,8.9-13.7,15.5
			c-1.5,3.5-2.6,7.2-3.5,10.9c-1,3.8-2.4,8-1.5,12c0.5,2,1.4,3.8,2,5.8c0.7,2.4,0.5,4.4-0.6,6.6c-0.9,1.7-1.7,3.4-1.7,5.4
			c0,2.1,0.7,4.1,1.5,6c0.9,2.1,1.8,4.2,2.4,6.4c0.7,2.4,1.1,4.9,1.3,7.5c0.4,4.8,0.3,9.6,0.2,14.3c0,20.3-0.1,40.7-0.1,61
			c0,2.5,0,5,0,7.6c0,0.1,0.1,0.3,0.3,0.4c1.4,0.2,1.8,1.8,2.1,3.1c0.3,1.5,0.5,2.9,0.8,4.4c0.4,3,0.7,6.1,1,9.2
			c0.4,5.9,0.5,11.9,0.5,17.8c0,5.9,0.2,11.9-0.4,17.8c-0.3,2.9-0.6,5.8-0.7,8.8c-0.1,3,0.2,6,0.3,9c0.2,6.9-0.3,13.7-0.3,20.6
			C155.3,293.4,156,293.4,156.1,293L156.1,293z"/>
	</g>
</g>
<g>
	<path class="st1" d="M148.4,70.7c-2.5-2.9-3.9-6.6-5.1-10.2c-1.3-3.7-2.6-7.5-3.9-11.2c-0.5-1.4-0.9-2.7-1.1-4.1
		c-0.3-3.6,1.8-7,3.7-10c2.6-4.1,5.4-8.2,9.3-11.1c2-1.4,4.2-2.5,6.4-3.5c4.3-2,8.6-4.1,13-6.1c1.5-0.7,3-1.4,4.6-1.7
		c2.5-0.4,4.9,0.2,7.4,0.4c10,0.9,20.1-4.5,29.7-1.9"/>
	<g>
		<path class="st2" d="M148.7,70.5c-2.4-2.8-3.7-6.3-4.9-9.7c-1.3-3.9-2.7-7.7-4-11.6c-0.6-1.7-1.2-3.5-1-5.3c0.1-2,0.9-3.8,1.9-5.5
			c1.7-3.2,3.8-6.3,6.1-9.1c2.3-2.9,5.1-5.2,8.4-7c3.4-1.8,7-3.3,10.5-5c1.8-0.8,3.6-1.7,5.4-2.5c2-1,4-1.8,6.3-1.8
			c1.9,0,3.7,0.4,5.6,0.6c1.7,0.2,3.5,0.1,5.2,0c8.1-0.7,16.3-4,24.4-1.9c0.5,0.1,0.7-0.6,0.2-0.7c-7.4-1.9-14.8,0.6-22.1,1.6
			c-2.1,0.3-4.1,0.5-6.2,0.4c-2.1-0.1-4.1-0.5-6.2-0.6c-4-0.2-7.4,1.8-10.9,3.4c-3.9,1.8-7.8,3.6-11.7,5.5c-3.4,1.7-6.3,3.8-8.7,6.7
			c-2.4,2.8-4.4,5.9-6.3,9.1c-1.8,3-3.1,6.4-2.2,9.9c0.6,2.3,1.5,4.5,2.2,6.7c0.8,2.3,1.6,4.5,2.3,6.8c1.3,3.8,2.7,7.6,5.3,10.6
			C148.4,71.4,149,70.8,148.7,70.5L148.7,70.5z"/>
	</g>
</g>
<g>
	<path class="st1" d="M190,12.1c2.1,0.2,4.2,0.3,6.3,0.5c1.6,0.1,3.4,0.3,4.8,1.1c1.3,0.8,2.4,2.1,3.9,2.2c1.1,0.1,2.2-0.6,3.1-1.2
		c1.4-0.9,2.8-1.7,4.5-1.8c1.6-0.1,3.4,0.9,3.7,2.5"/>
	<g>
		<path class="st2" d="M190,12.4c2.8,0.2,5.6,0.2,8.3,0.7c1.3,0.2,2.4,0.7,3.5,1.4c0.7,0.5,1.3,1.1,2.1,1.4c2,0.8,3.6-0.6,5.2-1.6
			c2.1-1.2,6-2.2,6.9,1c0.1,0.4,0.7,0.2,0.6-0.2c-0.5-1.7-2.2-2.7-3.9-2.7c-1.1,0-2.1,0.3-3,0.8c-1.3,0.6-2.5,1.8-4,2.2
			c-1.5,0.3-2.6-0.8-3.8-1.6c-0.9-0.7-2-1.1-3.1-1.4c-2.9-0.6-6-0.6-8.9-0.8C189.6,11.7,189.6,12.4,190,12.4L190,12.4z"/>
	</g>
</g>
<g>
	<path class="st1" d="M142.7,58.7c0.1-0.9-0.8-1.5-1.7-1.9c-4.1-1.8-8.5-3.2-12.9-4c0.1-2.5-2-4.6-4.4-5.4c-2.3-0.9-4.9-0.9-7.3-1.5
		c-3.6-0.9-7-3.1-9.3-6c-1.1-1.5-2-3.2-3.5-4.3c-2.5-2-6-2.1-9.3-1.9c-5,0.3-9.9,1.1-14.7,2.3c-2,0.5-4,1-6,0.7
		c-2.1-0.4-3.9-1.7-6-2.1c-6-1.4-11.6,4.4-17.8,4.1c-2.3-3.3-5.1-6.4-8.7-8.1c-3.6-1.7-8.2-1.7-11.4,0.8"/>
	<g>
		<path class="st2" d="M143,58.7c0-0.9-0.6-1.5-1.4-2c-1.2-0.7-2.7-1.2-4-1.7c-3.1-1.1-6.2-2-9.5-2.6c0.1,0.1,0.2,0.2,0.3,0.4
			c0-3.1-2.7-5.2-5.5-6.1c-2-0.6-4.2-0.7-6.2-1.2c-1.9-0.4-3.7-1.2-5.3-2.2c-1.7-1.1-3.1-2.5-4.3-4.1c-1-1.4-1.9-2.9-3.2-4
			c-2.8-2.3-6.6-2.2-10-2c-4.3,0.3-8.7,0.9-12.9,1.9c-2.2,0.5-4.5,1.3-6.8,1.1c-2.1-0.2-3.9-1.5-6-2.1c-3.2-0.9-6.3,0.3-9.3,1.5
			c-1.7,0.7-3.3,1.4-5,2c-0.8,0.2-1.7,0.4-2.6,0.5c-0.4,0-0.9,0.1-1.2,0c-0.4-0.2-0.7-0.9-1-1.2c-2.3-3.1-5.2-5.9-8.9-7.2
			c-3.5-1.3-7.6-1-10.6,1.2c-0.4,0.3,0,0.9,0.4,0.6c2.9-2.2,6.9-2.4,10.2-1.1c3.5,1.4,6.3,4.1,8.5,7.1c0.3,0.4,0.6,1.1,1,1.3
			c0.5,0.2,1.5,0,2-0.1c1.6-0.2,3.1-0.7,4.6-1.3c3-1.2,6.1-2.9,9.4-2.9c2,0,3.6,0.8,5.4,1.5c1.7,0.7,3.3,1,5.1,0.8
			c2-0.2,3.9-0.9,5.9-1.3c2-0.4,4.1-0.8,6.2-1.1c3.8-0.5,8.1-1.2,11.9-0.3c2,0.5,3.6,1.6,4.8,3.2c1,1.3,1.9,2.7,3,4
			c2.6,2.7,5.9,4.4,9.6,5.1c3.7,0.7,10.1,1.2,10.1,6.3c0,0.2,0.1,0.3,0.3,0.4c2.5,0.5,4.9,1,7.2,1.8c1.2,0.4,2.4,0.8,3.5,1.3
			c1,0.4,3.5,1,3.5,2.4C142.3,59.2,143,59.2,143,58.7L143,58.7z"/>
	</g>
</g>
<g>
	<path class="st1" d="M140.6,36.3c-2.2-2.3-0.8-7-3.6-8.4c-0.8-0.4-1.6-0.4-2.5-0.4c-5.4,0.1-10.8,0.9-16-0.4
		c-3.3-0.9-6.4-2.6-9.8-2.8c-1.8-0.1-3.7,0.3-5.5,0.6c-3.8,0.8-7.7,1.5-11.5,2.3c-5.5,1.1-11,2.2-16.6,2.3c-1.1,0-2.3,0-3.2-0.6
		c-1.4-0.9-2-2.7-3.1-3.9c-2.5-2.5-6.6-1.4-9.8,0s-7.1,2.9-10,0.9c-0.9-0.7-1.6-1.6-2.4-2.4c-4.7-4.5-12.7-2.9-18-6.5"/>
	<g>
		<path class="st2" d="M140.8,36c-2-2.2-0.7-6-3-8.1c-1.3-1.2-3.4-0.9-5-0.8c-2.5,0.1-4.9,0.3-7.4,0.3s-4.9-0.2-7.3-0.9
			c-2.2-0.6-4.2-1.6-6.3-2.2c-4.4-1.2-8.9,0.1-13.3,1c-4.7,0.9-9.5,2-14.2,2.8c-2.6,0.4-5.1,0.7-7.7,0.9c-1.1,0.1-2.3,0.2-3.4-0.1
			c-1.4-0.3-2.1-1.3-2.8-2.4c-0.8-1.3-1.7-2.4-3.2-3s-3.1-0.5-4.6-0.2c-3.9,0.8-7.6,3.8-11.7,3c-2.3-0.5-3.4-2.6-5.1-3.9
			c-1.5-1.1-3.3-1.7-5.1-2.2c-4-1-8.3-1.1-11.9-3.5c-0.4-0.3-0.8,0.4-0.4,0.6c2.9,1.9,6.4,2.4,9.8,3.1c1.8,0.3,3.6,0.7,5.3,1.5
			c1.9,0.9,3,2.2,4.5,3.6c2.8,2.6,6.6,1.6,9.8,0.3c3.2-1.3,8-3.6,10.9-0.5c1.2,1.3,1.7,3.1,3.3,3.9c1.7,0.9,4,0.6,5.9,0.4
			c4.7-0.3,9.4-1.3,14-2.2c2.4-0.5,4.8-1,7.2-1.4c2.4-0.5,4.9-1.1,7.4-1.4c4.8-0.5,8.8,2.1,13.4,3c2.5,0.5,5.1,0.5,7.6,0.4
			c2.6-0.1,5.4-0.5,8-0.3c4.3,0.3,2.7,6.2,4.9,8.7C140.6,36.9,141.2,36.4,140.8,36L140.8,36z"/>
	</g>
</g>
<g>
	<path class="st1" d="M57.7,25.6c-2,0.4-3.7,2.1-4.1,4.1c-0.2,0.8-0.2,1.7-0.4,2.6c-0.7,2.4-3.4,3.5-5,5.4c-1.7,1.9-2.4,4.7-1.7,7.2
		"/>
	<g>
		<path class="st2" d="M57.6,25.3c-1.8,0.4-3.3,1.7-4,3.4c-0.5,1.1-0.4,2.2-0.7,3.3c-0.3,1.1-1,2-1.8,2.8c-1.5,1.4-3.2,2.4-4.2,4.3
			c-1,1.8-1.3,4-0.8,6c0.1,0.5,0.8,0.3,0.7-0.2c-0.5-2.1-0.1-4.4,1.2-6.2c1.1-1.5,2.7-2.4,4.1-3.7c0.5-0.5,1-1.1,1.3-1.8
			c0.4-0.9,0.4-1.9,0.6-2.8c0.4-2.1,1.9-3.7,3.9-4.2C58.3,25.9,58.1,25.1,57.6,25.3L57.6,25.3z"/>
	</g>
</g>
<g>
	<path class="st1" d="M147.4,36.9c-2-0.6-3.6-2.4-4.1-4.4c-0.5-2.3,0.1-5.2-1.7-6.6c-0.7-0.5-1.7-0.9-1.9-1.7
		c-0.1-0.4,0-0.9,0.1-1.3c0.7-3,1.5-5.9,2.2-8.9"/>
	<g>
		<path class="st2" d="M147.5,36.5c-2.1-0.7-3.6-2.5-4-4.8c-0.3-1.6,0-3.4-0.8-5c-0.3-0.6-0.7-1.1-1.3-1.4c-0.5-0.4-1.1-0.6-1.4-1.2
			c-0.3-0.7,0-1.5,0.2-2.3c0.6-2.6,1.3-5.2,1.9-7.8c0.1-0.5-0.6-0.7-0.7-0.2c-0.7,3-1.5,5.9-2.2,8.9c-0.2,0.9-0.2,1.7,0.5,2.3
			c0.8,0.7,1.8,1,2.3,2.1c0.9,1.9,0.3,4.2,1.1,6.2c0.7,1.9,2.2,3.2,4.1,3.9C147.7,37.4,147.9,36.7,147.5,36.5L147.5,36.5z"/>
	</g>
</g>
<g>
	<path class="st1" d="M206.4,25.6c-1.3,0.3-2.2,1.4-2.6,2.6c-0.4,1.2-0.5,2.5-0.6,3.8c-0.2,2.4-0.8,4.8-0.7,7.2s0.9,5,2.9,6.4"/>
	<g>
		<path class="st2" d="M206.3,25.4c-1.6,0.4-2.5,1.8-2.9,3.3c-0.3,1-0.3,2-0.4,3c-0.1,1.3-0.3,2.5-0.5,3.8c-0.5,3.7-0.5,8,2.8,10.4
			c0.2,0.2,0.5-0.2,0.2-0.4c-3-2.2-3-6.3-2.6-9.6c0.2-1.9,0.4-3.7,0.6-5.6c0.2-1.9,0.9-4,2.9-4.5C206.7,25.8,206.6,25.3,206.3,25.4
			L206.3,25.4z"/>
	</g>
</g>
<g>
	<path class="st1" d="M203.6,25.1c0.6-1,1-2.5,0.1-3.1c-0.3-0.2-0.8-0.3-1.2-0.3c-1.8-0.1-3.5-0.2-5.3-0.3c-1-0.1-2.3-0.3-2.6-1.2
		c-0.2-0.5-0.1-0.9-0.1-1.4c-0.2-1.8-2.5-2.5-4.3-2.7"/>
	<g>
		<path class="st2" d="M203.9,25.3c0.6-1.1,1.3-3.1-0.3-3.8c-0.9-0.4-2-0.2-2.9-0.3c-1.2-0.1-2.4-0.1-3.6-0.2
			c-1-0.1-2.1-0.3-2.1-1.4c-0.1-0.8,0-1.5-0.6-2.1c-0.9-1.2-2.6-1.6-4-1.8c-0.5-0.1-0.7,0.7-0.2,0.7c1.3,0.2,3,0.5,3.7,1.7
			c0.5,0.7,0.1,1.6,0.5,2.4c0.2,0.5,0.7,0.9,1.2,1.1c0.7,0.3,1.4,0.3,2.2,0.3c1.1,0.1,2.1,0.1,3.2,0.2c0.8,0,2.4-0.2,2.8,0.6
			c0.4,0.7-0.1,1.7-0.5,2.3C203.1,25.4,203.7,25.7,203.9,25.3L203.9,25.3z"/>
	</g>
</g>
<g>
	<path class="st1" d="M155.9,281.8c0-5.7,0-11.4,0-17.1c0-3,0-6.1-1.1-8.9c-1.1-3.1-2.4-6-2.9-9.3c-2.3-15-4.6-29.9-6.9-44.9
		c-1.5-9.6-3-19.4-2.5-29.1c0.2-4.3,0.8-8.5,0.7-12.8c-0.1-15-7.4-29.2-8-44.1c-0.2-4.6,0.2-9.3,0-13.9c-0.3-5.6-1.5-11.1-2.8-16.6
		c-2.8-11.5-6.1-22.9-9.9-34.1c-0.4-1-0.7-2.1-1.5-2.9c-1-1-2.4-1.3-3.7-1.6c-4.5-0.8-9.2-0.8-13.7,0.1c-2.4,0.5-5.3,1.1-7.1-0.5
		c-1.1-1-1.5-2.4-2.2-3.7c-1.8-3.4-5.5-5.7-9.4-5.7"/>
	<g>
		<path class="st2" d="M156.2,281.8c0-4.9,0-9.8,0-14.7c0-2.2,0.1-4.5-0.1-6.7c-0.2-2.2-0.7-4.1-1.5-6.2c-0.8-2-1.5-4-2-6.1
			c-0.5-2.4-0.8-4.8-1.2-7.2c-0.8-4.9-1.5-9.9-2.3-14.8c-1.5-9.7-3-19.3-4.5-29c-1.5-9.8-2.3-19.5-1.5-29.4c0.4-4.7,0.6-9.3,0-13.9
			c-0.5-4.3-1.4-8.5-2.5-12.6c-2.2-8.8-5-17.5-5.2-26.7c-0.1-4.9,0.3-9.7,0-14.6c-0.4-4.7-1.3-9.3-2.4-13.9
			c-2.2-9.3-4.8-18.5-7.7-27.7c-0.7-2.3-1.5-4.6-2.3-6.9c-0.5-1.6-1-3.3-2.5-4.3s-3.5-1.2-5.2-1.5c-2.4-0.3-4.7-0.4-7.1-0.2
			c-2.1,0.1-4.2,0.6-6.3,0.9c-2.2,0.4-4.6,0.5-6-1.6c-1-1.4-1.4-3.1-2.5-4.5c-1-1.3-2.4-2.4-3.9-3.1C88,36.4,86.4,36,84.8,36
			c-0.5,0-0.5,0.7,0,0.8c3.9,0.1,7.5,2.3,9.2,5.9c0.7,1.4,1.2,3,2.6,3.9s3.1,0.8,4.6,0.6c2.2-0.3,4.3-0.8,6.5-1
			c2.3-0.2,4.6-0.1,6.9,0.1c2.2,0.2,5.1,0.4,6.5,2.4c1.2,1.8,1.7,4.5,2.4,6.6c2.9,8.9,5.5,18,7.8,27.1c1.1,4.6,2.3,9.2,2.9,13.9
			c0.7,4.8,0.5,9.6,0.4,14.4c-0.2,8.9,1.8,17.4,4,26c2.3,8.6,4.4,17.3,3.9,26.3c-0.2,4.8-0.8,9.5-0.7,14.2s0.5,9.4,1.1,14.1
			c1.2,9.4,2.8,18.7,4.2,28c0.7,4.9,1.5,9.7,2.2,14.6c0.7,4.7,1.2,9.5,2.2,14.1c1,4.3,3.2,8.2,3.5,12.7c0.3,4.6,0.1,9.3,0.1,13.9
			c0,2.4,0,4.7,0,7.1C155.5,282.2,156.2,282.2,156.2,281.8L156.2,281.8z"/>
	</g>
</g>
<g>
	<path class="st1" d="M112,45.5c-1.8-2-0.4-5.3-0.7-8c-0.2-1.5-1.1-2.9-1.9-4.2c-1.8-2.8-3.6-5.8-6.5-7.5"/>
	<g>
		<path class="st2" d="M112.2,45.4c-1.4-1.6-0.8-3.9-0.7-5.8c0.1-1.9-0.3-3.5-1.2-5.2c-1.9-3.3-4-6.7-7.3-8.8
			c-0.2-0.2-0.5,0.2-0.2,0.4c1.8,1.2,3.2,2.7,4.4,4.4c1.1,1.6,2.3,3.3,3.2,5.1c0.9,1.9,0.7,3.8,0.5,5.9c-0.1,1.6-0.1,3.1,1,4.3
			C112,45.9,112.4,45.6,112.2,45.4L112.2,45.4z"/>
	</g>
</g>
<g>
	<path class="st1" d="M132.4,85.8c-1.7-11.5-1.7-23.2,0.1-34.7c0.2-1.4,0.5-2.9,1.3-4c1.3-1.8,3.5-2.5,5.5-3.4
		c3.9-1.8,7.2-4.8,9.4-8.5c1.3-2.2,2.2-4.5,3.6-6.6s3.5-3.9,6-4.2"/>
	<g>
		<path class="st2" d="M132.7,85.7c-1.5-10.3-1.7-20.9-0.4-31.2c0.3-2.3,0.3-5.3,1.7-7.2c1.2-1.8,3.5-2.4,5.3-3.3
			c3.7-1.7,6.9-4.5,9.1-7.9c2.7-4.1,4.2-10.5,9.8-11.4c0.5-0.1,0.3-0.8-0.2-0.7c-4.6,0.7-6.7,5.2-8.6,8.9
			c-2.3,4.4-5.6,8.1-10.1,10.3c-1.8,0.9-3.8,1.5-5.2,2.9c-1.5,1.4-1.9,3.5-2.2,5.5c-0.8,5.3-1.2,10.6-1.3,16
			c-0.1,6.2,0.4,12.3,1.3,18.4C132.1,86.3,132.8,86.1,132.7,85.7L132.7,85.7z"/>
	</g>
</g>
<g>
	<path class="st1" d="M95.3,7.1c1.5,2.8-0.5,6.8-3.6,7.4"/>
	<g>
		<path class="st2" d="M95.1,7.2c1.4,2.7-0.5,6.5-3.5,7c-0.3,0.1-0.2,0.5,0.1,0.4C95,14,97,9.9,95.5,7C95.3,6.7,94.9,6.9,95.1,7.2
			L95.1,7.2z"/>
	</g>
</g>
<path class="st3" d="M155.8,257.1c0,0-0.7,45.5-2.9,49.3s-10.1,12.7-4.9,12.4c5.2-0.3,9.2,7.5,8.3-11
	C155.3,289.3,155.8,257.1,155.8,257.1z"/>
<g>
	<path class="st1" d="M156.2,300.1c3.7-6.3,8.4-12,13.9-16.9c1.6-1.4,3.3-2.8,4.5-4.6c1.1-1.8,1.7-3.9,3-5.5
		c2.1-2.7,5.7-3.8,8.6-5.6c6.6-4.2,9.3-12.4,14.4-18.3c0.6-0.7,1.3-1.4,2.1-1.9c1.1-0.7,2.3-0.9,3.6-1.2c2.8-0.6,5.6-1.2,8.4-1.8
		c1.7-0.4,3.4-0.8,4.8-1.8c2.7-1.9,3.5-5.6,5.8-8.1"/>
	<g>
		<path class="st2" d="M156.9,300.4c3.5-6,7.9-11.5,13.1-16.1c1.3-1.2,2.6-2.2,3.8-3.5c1.1-1.2,1.9-2.6,2.6-4.1
			c0.7-1.5,1.4-3,2.7-4.2c1.1-1,2.5-1.8,3.9-2.5c2.6-1.4,5.1-2.7,7.1-4.9c2-2.1,3.6-4.5,5.2-7c1.6-2.6,3.2-5.3,5.1-7.7
			c1-1.3,2.1-2.5,3.7-3.1c1.8-0.7,3.8-1,5.7-1.4c2-0.4,3.9-0.8,5.9-1.3c1.7-0.4,3.3-0.9,4.7-2c2.6-2.1,3.4-5.4,5.5-7.9
			c0.6-0.7-0.4-1.8-1.1-1.1c-1.9,2.3-2.8,5.3-5,7.4c-1.1,1.1-2.6,1.6-4.1,2c-1.9,0.5-3.9,0.9-5.8,1.3c-3.3,0.7-6.8,1-9.2,3.5
			c-2.1,2.1-3.7,4.7-5.2,7.2c-1.6,2.6-3.2,5.2-5.1,7.6c-2,2.4-4.3,4.1-7.1,5.5c-2.6,1.3-5.2,2.6-6.8,5.1c-0.9,1.4-1.4,3-2.3,4.5
			c-0.9,1.5-2.3,2.8-3.6,3.9c-5.9,5.2-11,11.1-14.9,17.9C155.1,300.5,156.4,301.3,156.9,300.4L156.9,300.4z"/>
	</g>
</g>
<g>
	<path class="st1" d="M155.2,295.2c4-3.9,9.9-4.9,15.5-5.1c5.6-0.1,11.3,0.5,16.7-0.9c3.3-0.8,6.4-2.4,9.7-3.4
		c4.9-1.4,10.3-1.5,14.9-3.8c11.7-5.7,14.2-23,26.1-28.3"/>
	<g>
		<path class="st2" d="M155.7,295.7c5.3-5.1,13.2-4.9,20.1-4.8c3.8,0.1,7.7,0.1,11.5-0.9c3.7-0.9,7.1-2.7,10.8-3.7
			c3.6-0.9,7.4-1.3,11-2.4c2.8-0.8,5.2-2.2,7.4-4.1c4.1-3.5,6.8-8.2,9.6-12.7c3.2-5,6.7-10.2,12.3-12.8c0.9-0.4,0.1-1.7-0.8-1.3
			c-10.1,4.6-13.2,16.5-20.4,24c-2,2-4.2,3.7-6.9,4.8c-3.6,1.4-7.4,1.8-11.1,2.6c-3.7,0.8-7.1,2.5-10.8,3.6
			c-3.9,1.2-8.1,1.3-12.2,1.2c-7.5-0.1-15.8-0.3-21.6,5.2C154,295.3,155,296.4,155.7,295.7L155.7,295.7z"/>
	</g>
</g>
<g>
	<path class="st1" d="M194.9,286.9c2.2-2.9,6.8-2,9.9-0.1c3.1,1.8,6.2,4.4,9.8,4.1c1-0.1,2-0.4,3-0.3c2.9,0.3,4.2,3.7,6.4,5.5
		c4.1,3.4,10.5,0.9,15.4,2.8c3.4,1.3,5.8,4.6,6.8,8.1s1.1,7.2,1.1,10.8"/>
	<g>
		<path class="st2" d="M195.1,287.2c3.3-4,8.9-0.3,12.2,1.7c1.8,1.1,3.7,2.2,5.8,2.4c1.2,0.1,2.3-0.2,3.5-0.3
			c1.4-0.1,2.4,0.4,3.4,1.4c1.4,1.3,2.3,3.1,3.9,4.3c1.5,1.1,3.3,1.6,5.2,1.7c4.6,0.4,9.4-0.6,13.1,2.8c4.5,4.2,4.6,10.9,4.7,16.6
			c0,0.5,0.8,0.5,0.8,0c0-5.2-0.1-10.9-3.3-15.3c-1.3-1.7-2.9-3.2-5-4c-2.2-0.8-4.5-0.8-6.8-0.8c-2.5,0-5.1,0.1-7.3-1.1
			c-2.1-1.1-3.1-3.2-4.7-4.8c-1.6-1.5-3.2-1.7-5.3-1.4c-3.1,0.5-5.7-1-8.3-2.6c-3.4-2.2-9.1-5.2-12.4-1.1
			C194.3,287,194.8,287.5,195.1,287.2L195.1,287.2z"/>
	</g>
</g>
<g>
	<path class="st1" d="M153.4,310.8c-2-5.6-9.2-7.4-15.2-6.9s-12.1,2.3-17.8,0.4c-2.5-0.8-4.7-2.2-7.2-3c-8.9-2.6-18.6,4.6-27.5,1.8
		c-3.1-1-5.8-3.1-8.9-4C71,297.6,65,300.6,59,300c-3-0.3-6.4-1.4-8.8,0.4c-0.7,0.5-1.2,1.2-1.9,1.6c-0.6,0.3-1.4,0.4-2.1,0.5
		c-4.7,0.7-8.8,4.4-9.9,9"/>
	<g>
		<path class="st2" d="M154.1,310.6c-2.8-7.3-11.8-8-18.4-7.2c-4.9,0.6-10.2,1.8-15.1,0.2c-2.3-0.7-4.3-2-6.5-2.8
			c-1.9-0.7-4-0.9-6-0.8c-4.1,0.2-8.1,1.5-12.2,2.3c-2.1,0.4-4.2,0.7-6.4,0.6c-2.3-0.1-4.4-0.8-6.4-1.9c-2-1-4-2.2-6.2-2.8
			c-2.2-0.6-4.6-0.5-6.8-0.2c-2.3,0.3-4.6,0.8-7,1.1c-2.4,0.2-4.6-0.1-6.9-0.4c-2-0.3-4.3-0.4-6,0.8c-0.4,0.3-0.7,0.6-1.1,1
			c-0.7,0.7-1.3,0.9-2.3,1.1s-2,0.3-3,0.7c-3.9,1.5-7,4.8-8,8.9c-0.2,0.9,1.2,1.3,1.4,0.4c1-3.8,3.9-6.9,7.6-8.1
			c1.8-0.5,3.6-0.4,5-1.7c0.8-0.7,1.4-1.4,2.5-1.6c1-0.3,2.1-0.2,3.1-0.1c2.1,0.2,4.1,0.7,6.3,0.6c2.1-0.1,4.2-0.5,6.3-0.9
			c2.3-0.4,4.7-0.7,7-0.4c2.3,0.3,4.4,1.4,6.5,2.5c3.6,1.9,7.1,2.8,11.1,2.4c3.9-0.4,7.7-1.7,11.6-2.4c1.9-0.4,3.9-0.6,5.8-0.4
			c2.3,0.2,4.3,0.9,6.3,1.9c2,0.9,4,1.8,6.2,2.2c2.3,0.4,4.5,0.3,6.8,0.1c4.6-0.5,9.3-1.6,13.9-0.9c3.8,0.6,7.8,2.3,9.3,6.2
			C153,311.9,154.5,311.5,154.1,310.6L154.1,310.6z"/>
	</g>
</g>
<g>
	<path class="st1" d="M56.9,299.5c-1.6,0.8-3.4-0.6-4.3-2s-1.7-3.2-3.2-4c-1.2-0.6-2.5-0.4-3.8-0.6c-1.3-0.1-2.8-0.7-3.1-1.9
		c-0.3-1-0.1-2.4-1.1-2.6"/>
	<g>
		<path class="st2" d="M56.7,299.2c-2.1,0.9-3.7-1.7-4.6-3.2c-0.9-1.5-1.9-2.8-3.6-3.2c-1.7-0.4-4,0.2-5.3-1.2c-0.9-1-0.2-3-1.7-3.5
			c-0.5-0.1-0.7,0.6-0.2,0.7c0.8,0.2,0.6,1.7,0.8,2.3c0.2,0.7,0.7,1.2,1.3,1.6c1.8,1.1,4,0.2,5.8,1.1s2.4,3.1,3.6,4.5
			c1.1,1.3,2.7,2.2,4.3,1.5C57.5,299.6,57.1,299,56.7,299.2L56.7,299.2z"/>
	</g>
</g>
<g>
	<path class="st1" d="M155.5,309c1.7-3.8-1.4-8.1-5.1-10.1s-8-2.4-11.7-4.2c-3.4-1.7-6.4-4.6-10.3-5c-3.1-0.3-6.2,1.1-9.3,0.9
		c-6-0.4-10.3-6.6-16.3-7.4c-6.1-0.9-11.3,3.9-15.9,8c-4.9,4.4-10.1,8.5-16.1,11.2c-5.9,2.8-12.7,4.2-19.1,3.1"/>
	<g>
		<path class="st2" d="M156.3,309.2c1.3-3.2-0.3-6.6-2.6-8.9c-2.9-2.8-6.9-3.6-10.7-4.8c-2.1-0.6-4-1.5-5.9-2.6
			c-1.7-1.1-3.3-2.2-5.2-3c-1.8-0.8-3.6-1.1-5.6-0.9c-2.2,0.2-4.4,0.9-6.6,0.9c-3.7-0.1-6.8-2.5-9.7-4.4c-2.9-1.9-6.1-3.4-9.7-3.1
			c-3.7,0.4-7,2.5-9.8,4.8c-3.4,2.7-6.4,5.7-9.8,8.4c-8.1,6.2-18.1,10.9-28.6,9.2c-0.9-0.1-1.4,1.3-0.4,1.4
			c8.4,1.3,16.8-1.2,23.9-5.5c3.5-2.1,6.8-4.6,9.8-7.2s5.9-5.5,9.4-7.6c3.4-2,7.1-2.8,10.8-1.2c3.1,1.3,5.7,3.6,8.7,5.2
			c1.4,0.7,2.9,1.2,4.4,1.4c2,0.2,4-0.2,6-0.6c2.3-0.4,4.4-0.4,6.5,0.5c1.8,0.8,3.4,2,5.1,3c3.9,2.4,8.2,3,12.4,4.8
			c3.7,1.5,7.9,5.4,6.1,9.8C154.4,309.7,155.9,310.1,156.3,309.2L156.3,309.2z"/>
	</g>
</g>
<g>
	<path class="st1" d="M87.8,290.2c-5.5-0.5-11-0.9-16.5-1.4c-1-0.1-2.2-0.2-3-0.8c-0.9-0.6-1.3-1.7-1.9-2.6
		c-4-6.2-13.2-5.8-19.4-9.7c-2.1-1.4-3.9-3.2-6.1-4.5c-4.6-2.6-10.2-2.2-15.5-1.7"/>
	<g>
		<path class="st2" d="M87.8,289.5c-5.5-0.5-11-0.9-16.5-1.4c-1.3-0.1-2.5-0.3-3.3-1.5c-0.6-0.8-1-1.7-1.6-2.5
			c-1.1-1.4-2.5-2.4-4-3.3c-3.3-1.8-7.1-2.5-10.6-3.7c-1.9-0.7-3.6-1.5-5.2-2.6c-1.9-1.4-3.6-3.1-5.8-4.2c-4.7-2.4-10.2-2-15.3-1.5
			c-1,0.1-1,1.6,0,1.5c4.7-0.5,10-1,14.4,1.2c2.2,1.1,3.9,2.8,5.8,4.2c1.6,1.2,3.3,2,5.1,2.7c3.6,1.3,7.5,2,10.9,3.8
			c1.6,0.9,3.1,2,4.1,3.5c1.1,1.7,1.9,3.3,4.1,3.7c2.8,0.6,5.8,0.6,8.6,0.8c3.1,0.3,6.3,0.5,9.4,0.8C88.8,291,88.7,289.5,87.8,289.5
			L87.8,289.5z"/>
	</g>
</g>
<g>
	<path class="st1" d="M149.7,315.5c-3,2.7-7.6,2.6-11.6,1.8c-4-0.8-8.1-2.2-12.1-1.4c-1.7,0.3-3.4,1.1-5.2,1
		c-1.4-0.1-2.6-0.6-3.9-1.1c-2.8-1-5.9-1.3-8.9-1c-2.5,0.2-4.9,0.9-7.3,1.3c-11.6,2-23.6-1.1-35.4,0.1c-2.9,0.3-5.8,0.9-8.7,0.7
		c-3.4-0.3-6.6-1.7-10-2.2c-3.8-0.6-7.6-0.2-11.4,0.3c-3.1,0.4-6.1,0.7-9.2,1.1c-1,0.1-1.9,0.2-2.8,0.6c-1.4,0.6-2.5,1.7-3.6,2.7
		c-4.6,4.1-10.6,6.7-16.8,7"/>
	<g>
		<path class="st2" d="M149.2,314.9c-3.5,3.1-8.6,2.1-12.8,1.2c-2.4-0.6-4.7-1.2-7.2-1.3c-1.2,0-2.3,0-3.4,0.3
			c-1.3,0.2-2.5,0.7-3.8,0.9c-2.6,0.4-5.1-1.2-7.6-1.7c-2.3-0.5-4.6-0.6-6.9-0.3c-2.5,0.3-4.9,0.9-7.3,1.3c-2.6,0.4-5.3,0.6-8,0.6
			c-5.1,0-10.3-0.5-15.4-0.7c-2.6-0.1-5.2-0.2-7.8-0.1c-2.6,0.1-5.1,0.5-7.6,0.7c-2.7,0.3-5.3,0.3-8-0.4c-2.4-0.6-4.8-1.4-7.2-1.7
			c-5-0.7-10.2,0.3-15.2,0.9c-1.4,0.2-2.9,0.3-4.3,0.5c-1.2,0.1-2.4,0.2-3.5,0.6c-2.3,0.9-3.9,3-5.9,4.5c-4.2,3.2-9.3,5-14.5,5.3
			c-1,0.1-1,1.6,0,1.5c4.5-0.3,8.8-1.6,12.7-3.8c1.9-1.1,3.6-2.5,5.2-4c0.9-0.8,1.9-1.7,3.1-2.1s2.6-0.5,3.9-0.6
			c5.3-0.6,10.7-1.7,16.1-1.5c5.1,0.2,9.7,2.7,14.8,2.6c2.8-0.1,5.5-0.6,8.2-0.8c2.6-0.2,5.2-0.2,7.8-0.1c5.2,0.2,10.4,0.7,15.6,0.8
			c2.6,0,5.2,0,7.8-0.3c2.6-0.3,5-0.9,7.6-1.3c2.6-0.5,5.3-0.6,8-0.2c2.4,0.4,4.6,1.6,7,1.9c2.8,0.3,5.4-1.2,8.2-1.2
			c3,0,5.9,0.9,8.8,1.5c4.3,0.9,9.3,1.2,12.8-1.9C151,315.3,149.9,314.3,149.2,314.9L149.2,314.9z"/>
	</g>
</g>
<g>
	<path class="st1" d="M136.2,317c-1.5-0.3-3-0.6-4.5-0.9c-0.9,4.2-4.4,7.4-8,9.8s-7.7,4.3-10.6,7.4c-1.2,1.3-2.3,2.8-3.9,3.5
		c-1.1,0.5-2.3,0.4-3.5,0.5c-4,0.1-8,1-11.7,2.5c-1.5,0.6-3,1.4-3.7,2.9c-0.6,1.5-0.2,3.2-0.1,4.8c0.2,3.1-1.1,6.3-3.4,8.4
		c-1.3,1.1-2.8,2-4.1,3.1c-4.7,4.1-6,12.2-12.1,13.7"/>
	<g>
		<path class="st2" d="M136.4,316.3c-1.5-0.3-3-0.6-4.5-0.9c-0.4-0.1-0.8,0.1-0.9,0.5c-1.4,6.3-7.7,9.3-12.7,12.4
			c-2.6,1.6-4.8,3.5-6.9,5.8c-1.1,1.2-2.2,2.2-3.9,2.4c-1.7,0.2-3.5,0.2-5.2,0.4c-3.2,0.4-6.4,1.3-9.3,2.6c-1.1,0.5-2.2,1.2-2.9,2.2
			c-0.9,1.3-0.8,2.9-0.7,4.4c0.3,3.2-0.3,6.2-2.5,8.6c-1.9,2-4.5,3.2-6.3,5.4c-3,3.8-4.8,10.3-10.1,11.7c-0.9,0.2-0.5,1.7,0.4,1.4
			c4.8-1.2,6.8-6,9.2-9.9c0.6-1,1.3-2,2.1-2.9c1.1-1.2,2.4-2.1,3.7-3c2.3-1.7,4.1-3.9,4.8-6.8c0.3-1.4,0.4-2.8,0.2-4.2
			c-0.2-2-0.4-3.8,1.5-5.1c2.7-1.9,6.6-2.7,9.8-3.2c3.2-0.5,6.7,0.2,9.2-2.1c1.1-1,2-2.2,3.1-3.2c1.3-1.2,2.7-2.2,4.2-3.1
			c5.4-3.4,12.2-6.7,13.7-13.6c-0.3,0.2-0.6,0.3-0.9,0.5c1.5,0.3,3,0.6,4.5,0.9C137,318,137.4,316.5,136.4,316.3L136.4,316.3z"/>
	</g>
</g>
<g>
	<path class="st1" d="M139.7,317.9c-1.1,2.1-3.7,3-6,3.6c-7.4,2.1-15.4,4.3-22.6,1.5c-4.2-1.6-8.6-4.8-12.7-3
		c-1.2,0.5-2.2,1.5-3.3,2.2c-2.7,1.8-5.9,2.4-9.1,3c-5.9,1.1-11.7,2.2-17.6,3.3c-1.3,0.2-2.6,0.5-3.8,0.3c-1.4-0.2-2.6-0.9-3.8-1.7
		c-5.9-4.1-9.8-10.3-15.4-14.8c-3.1-2.5-6.9-4.6-8.5-8.3c-1-2.4-1.2-5.6-3.6-6.7c-1.7-0.8-4.5-0.4-4.9-2.2"/>
	<g>
		<path class="st2" d="M139,317.5c-1,1.8-2.9,2.5-4.8,3.1c-2.2,0.7-4.4,1.3-6.7,1.8c-4.6,1.1-9.5,1.7-14.1,0.6
			c-4-1-7.5-3.8-11.7-4.2c-1.9-0.2-3.6,0.3-5.2,1.4c-1.9,1.3-3.5,2.5-5.7,3.2c-4.4,1.4-9.1,1.9-13.7,2.8c-2.5,0.5-5,0.9-7.6,1.4
			s-5,1-7.4-0.4c-3.6-2.1-6.5-5.4-9.3-8.4s-5.6-5.9-8.9-8.3c-1.8-1.3-3.6-2.6-5-4.3c-1.4-1.7-1.8-3.6-2.5-5.6
			c-0.5-1.5-1.2-3.1-2.7-3.8c-1.2-0.6-4.3-0.4-4.7-1.9c-0.3-0.9-1.7-0.5-1.4,0.4c0.5,1.4,1.7,1.9,3.1,2.2c0.8,0.2,1.7,0.2,2.5,0.7
			s1.3,1.3,1.6,2.1c0.6,1.6,0.9,3.3,1.7,4.9c0.9,1.7,2.3,3.1,3.7,4.3c1.6,1.3,3.3,2.4,4.9,3.7c1.8,1.4,3.4,3,4.9,4.7
			c3,3.1,5.8,6.4,9.2,9.1c1.6,1.3,3.4,2.5,5.5,2.7c2.4,0.3,5.1-0.6,7.4-1c5.1-1,10.2-1.9,15.3-2.9c2.1-0.4,4.2-0.9,6.2-1.9
			s3.6-2.8,5.7-3.4c2.3-0.6,4.7,0.3,6.8,1.3c2,0.9,4,1.9,6.1,2.6c5.1,1.5,10.5,0.8,15.6-0.4c2.5-0.6,5.1-1.2,7.6-2.1
			c1.9-0.7,3.8-1.6,4.8-3.5C140.8,317.5,139.5,316.7,139,317.5L139,317.5z"/>
	</g>
</g>
<g>
	<path class="st1" d="M91.2,324.5c-1.9,3.5-5.2,6.1-9,7.3c-1.7,0.5-3.5,0.7-5,1.6c-1.6,0.9-2.7,2.3-4,3.6c-4.1,4.1-9.6,6.4-14.1,9.9
		c-5.6,4.4-10.2,10.9-17.2,12.3c-1,0.2-2.1,0.3-2.8,1c-0.9,0.9-0.8,2.5-1.7,3.5c-1.3,1.4-3.5,0.6-5.4,0.5c-3.1-0.2-6.1,1.9-7,4.8"/>
	<g>
		<path class="st2" d="M90.9,324.4c-1.4,2.6-3.6,4.7-6.2,6.1c-2.7,1.4-5.9,1.3-8.4,3.1c-1,0.7-1.9,1.7-2.8,2.6
			c-1.1,1.2-2.3,2.2-3.6,3.2c-2.3,1.7-4.8,3.1-7.3,4.7c-4.6,3-8.3,6.9-12.5,10.4c-2.1,1.7-4.4,3.3-7,4.1c-1.1,0.3-2.3,0.4-3.3,0.8
			c-1.1,0.5-1.5,1.3-1.9,2.4c-0.3,1-0.6,2-1.8,2.3c-0.7,0.2-1.6,0.1-2.3,0c-1.4-0.2-2.7-0.4-4,0c-2.4,0.7-4.4,2.5-5.2,4.9
			c-0.2,0.5,0.6,0.7,0.7,0.2c1-2.8,3.7-4.7,6.7-4.6c2,0.1,4.6,1,5.9-0.9c0.9-1.2,0.7-2.9,2.3-3.6c1.2-0.5,2.6-0.6,3.9-1
			c2.2-0.8,4.2-2.1,6.1-3.6c4.3-3.4,7.9-7.5,12.5-10.5c2.5-1.6,5.1-3,7.4-4.8c1-0.7,2-1.5,2.9-2.4c1.1-1.1,2.1-2.3,3.4-3.3
			c1.5-1.2,3.3-1.5,5.1-2c1.4-0.4,2.8-0.9,4.1-1.6c2.5-1.4,4.6-3.5,6-6C91.8,324.3,91.2,323.9,90.9,324.4L90.9,324.4z"/>
	</g>
</g>
<g>
	<path class="st1" d="M157,315c2.7-0.7,4.5,2.7,5.2,5.5c0.6,2.7,1.9,6.2,4.7,6.2c2,0,4.5-1.9,5.8-0.4c0.3,0.3,0.4,0.8,0.5,1.2
		c2.2,7.2,7.6,13.4,14.5,16.4c0.8,0.3,1.6,0.6,2.4,0.2c1.1-0.6,1.2-2.5,2.4-2.8c1.5-0.4,2.1,1.7,2.9,3.1c1.8,3.2,7.3,3,8.8,6.4"/>
	<g>
		<path class="st2" d="M157.1,315.3c2.8-0.5,4.1,2.9,4.7,5c0.5,1.9,1,4,2.4,5.4c1.5,1.5,3.3,1.2,5.1,0.7c1.3-0.4,2.8-0.9,3.4,0.8
			c0.4,1.2,0.8,2.4,1.3,3.6c2,4.4,5.2,8.2,9.2,11c1,0.7,2.1,1.4,3.2,1.9c0.9,0.5,2.1,1.1,3.2,0.9c0.8-0.2,1.2-0.7,1.6-1.3
			c0.3-0.4,0.4-1,0.8-1.4c0.8-0.7,1.5,0,1.9,0.7c0.6,1,0.9,2.1,1.7,2.9c0.7,0.7,1.6,1.2,2.4,1.6c2,1,4.6,1.6,5.7,3.8
			c0.2,0.4,0.9,0.1,0.6-0.4c-0.9-1.8-2.7-2.6-4.5-3.4c-0.9-0.4-1.9-0.8-2.8-1.4c-1-0.7-1.6-1.5-2.1-2.6c-0.6-1.2-1.8-3.2-3.4-2
			c-0.8,0.6-0.9,1.7-1.6,2.3c-1.3,1.2-3.8-0.6-5-1.4c-4.7-2.8-8.5-7.1-10.7-12.1c-0.7-1.6-0.9-4.7-3.1-4.8c-2.4-0.2-4.7,2.2-6.8-0.1
			c-2.5-2.7-2.1-11.6-7.7-10.5C156.4,314.7,156.6,315.4,157.1,315.3L157.1,315.3z"/>
	</g>
</g>
<g>
	<path class="st1" d="M153.8,317.7c1.2,3,4,5.3,7.2,5.8c1.8,0.3,3.6,0.1,5.4,0.4c2,0.3,3.9,1.3,5.9,1.9c3.5,1,7.2,0.7,10.8,0.7
		c13.8,0.2,27.4,5.7,41,3.4c5.5-1,10.7-3.2,15.8-5.5"/>
	<g>
		<path class="st2" d="M153.4,317.8c0.9,2.1,2.4,3.8,4.3,4.9c2.3,1.3,4.7,1.2,7.3,1.4c3.3,0.2,6.1,2,9.4,2.5
			c2.9,0.4,5.8,0.2,8.7,0.3c12.6,0.1,24.8,4.8,37.4,3.8c6.9-0.6,13.3-3.2,19.6-6c0.4-0.2,0.1-0.8-0.4-0.6c-5.7,2.5-11.4,5-17.6,5.7
			c-5.9,0.7-11.8,0-17.6-0.9c-5.7-0.9-11.4-2.1-17.2-2.6c-2.9-0.2-5.8-0.2-8.7-0.2c-3.1,0-5.8-0.5-8.7-1.6c-1.4-0.5-2.7-1-4.2-1.1
			c-1.7-0.2-3.4,0-5-0.3c-2.9-0.6-5.4-2.7-6.5-5.5C154,317.2,153.2,317.4,153.4,317.8L153.4,317.8z"/>
	</g>
</g>
<g>
	<path class="st1" d="M153.3,311.4c2.8-0.2,5.3-1.8,7.8-2.9c2.6-1.1,5.8-1.7,8,0c0.9,0.7,1.5,1.8,2.1,2.8
		c6.1,10.5,11.5,21.5,16.1,32.7c1.2,2.8,2.4,5.8,4.8,7.7c2,1.5,4.6,2.1,6.7,3.5c4.3,2.9,5.6,9.4,2.7,13.7"/>
	<g>
		<path class="st2" d="M153.3,311.8c2.8-0.2,5.1-1.7,7.6-2.8c2.7-1.2,6.2-2,8.5,0.3c1,1.1,1.7,2.5,2.4,3.8c0.9,1.5,1.7,3,2.5,4.6
			c1.5,2.8,3,5.6,4.4,8.4c3,5.9,5.7,11.9,8.2,18c0.9,2.2,1.8,4.4,3.3,6.3c1.8,2.2,4.4,3.1,6.9,4.3c5.1,2.5,7.2,9.2,4,14
			c-0.3,0.4,0.4,0.8,0.6,0.4c2.4-3.7,2.1-8.8-0.6-12.2c-1.7-2.2-4.2-3.1-6.7-4.2c-3-1.4-4.6-3.8-6-6.7c-2.8-6.2-5.3-12.5-8.3-18.6
			c-1.5-3.1-3.1-6.2-4.8-9.3c-1.6-2.9-3-6.1-5-8.7c-4.6-6.1-11.9,1.1-17.2,1.6C152.8,311.1,152.8,311.8,153.3,311.8L153.3,311.8z"/>
	</g>
</g>
<g>
	<path class="st1" d="M151.8,318.2c4.3,4.6,11.2,7.3,12.5,13.4c0.8,3.7-0.8,7.5-0.2,11.3c0.7,4.1,3.9,7.2,5.9,10.9
		c2.8,5.1,3.1,11.2,4.4,16.8s4.2,11.7,9.7,13.6"/>
	<g>
		<path class="st2" d="M151.3,318.8c3.1,3.3,7.3,5.4,10.2,8.9c1.7,2,2.4,4.4,2.3,7c-0.1,2.8-0.9,5.6-0.4,8.5
			c0.4,2.5,1.8,4.7,3.2,6.8c1.6,2.3,3.2,4.6,4.1,7.3c1.9,5.3,2,11.1,3.8,16.5c1.6,4.9,4.5,9.5,9.5,11.4c0.9,0.3,1.3-1.1,0.4-1.4
			c-4.7-1.7-7.3-6.5-8.6-11c-1.6-5.4-1.7-11.1-3.8-16.4c-0.9-2.4-2.3-4.6-3.8-6.7c-1.5-2.2-3-4.4-3.3-7.1c-0.3-2.9,0.5-5.7,0.5-8.6
			c0-2.3-0.7-4.4-2-6.3c-2.9-4-7.6-6.2-10.9-9.8C151.7,317,150.6,318.1,151.3,318.8L151.3,318.8z"/>
	</g>
</g>
<g>
	<path class="st1" d="M148.4,318.3c-2.5,4.9-4.9,9.9-7.4,14.8c-1,2.1-2.1,4.2-2.5,6.4c-0.4,1.9-0.3,3.8-0.8,5.6
		c-1,4.2-4.4,7.3-7.8,10c-8.1,6.5-17.5,12.6-21.1,22.3"/>
	<g>
		<path class="st2" d="M147.7,317.9c-2.5,5-5,10-7.5,15c-1.2,2.4-2.3,4.7-2.6,7.4c-0.4,2.6-0.4,5.1-1.7,7.4c-2.2,4-6.3,6.8-9.9,9.6
			c-3.4,2.7-6.9,5.3-10,8.4c-3.4,3.4-6.2,7.2-7.9,11.7c-0.3,0.9,1.1,1.3,1.4,0.4c3.1-8.4,10.6-14,17.4-19.3c3.4-2.6,7-5.1,9.5-8.7
			c1.3-1.9,2.1-3.9,2.3-6.2c0.2-1.3,0.2-2.7,0.5-4c0.3-1.4,0.9-2.8,1.5-4.2c2.6-5.6,5.5-11.1,8.3-16.7
			C149.4,317.8,148.1,317,147.7,317.9L147.7,317.9z"/>
	</g>
</g>
<g>
	<path class="st1" d="M150,316.9c-2.1,0.6-4,1.6-5.8,2.8c-0.7,0.5-1.5,1.1-1.8,1.9c-0.3,0.7-0.2,1.5-0.1,2.2
		c0.5,4.4,1.1,9.1,3.7,12.7c3.1,4.1,8.6,6.3,10.8,10.9c0.5,1,0.8,2.2,1.5,3.1c0.9,1.3,2.4,2.2,3.5,3.5c2.1,2.6,1.9,6.4,1.5,9.7"/>
	<g>
		<path class="st2" d="M149.8,316.2c-2,0.6-3.9,1.5-5.6,2.7c-1.7,1.1-2.8,2.3-2.7,4.4c0.2,3.9,0.9,8.2,2.6,11.7
			c1.7,3.3,4.6,5.4,7.4,7.7c1.4,1.2,2.9,2.4,3.9,3.9c1.1,1.6,1.5,3.6,2.7,5.1c1.5,1.8,3.5,2.8,4.2,5.2c0.7,2.3,0.4,4.7,0.2,7
			c-0.1,1,1.4,1,1.5,0c0.4-3.4,0.7-7.3-1.6-10.2c-1.1-1.4-2.8-2.3-3.7-3.9s-1.4-3.3-2.5-4.8c-2.1-2.6-4.9-4.3-7.4-6.5
			c-3-2.7-4.4-6.1-5.1-10c-0.2-1.1-0.4-2.3-0.5-3.5c-0.1-1.3-0.5-2.8,0.5-3.8c1.6-1.7,4.4-2.8,6.5-3.5
			C151.2,317.3,150.8,315.9,149.8,316.2L149.8,316.2z"/>
	</g>
</g>
<g>
	<path class="st1" d="M153.8,304.3c0.7-2.3,3-3.9,5.4-4.5s4.9-0.4,7.3-0.2c13.6,0.9,27.4-0.2,40.7-3.3c1.4-0.3,3-0.7,4-1.8
		c1.4-1.5,1.5-4.2,3.2-5.3c1.6-1.1,3.7-0.4,5.7-0.4c4.8,0.1,8.6-4,13.3-5c4.6-1,10.1,1,13.6-2.1"/>
	<g>
		<path class="st2" d="M154.5,304.5c1.2-3.4,5.1-4.3,8.4-4.3c3.7,0,7.4,0.4,11.2,0.5c7.5,0.1,15.1-0.4,22.6-1.5
			c3.7-0.5,7.3-1.2,10.9-2.1c1.3-0.3,2.5-0.6,3.6-1.4s1.7-2,2.2-3.3c0.6-1.4,1.1-2.8,2.8-3c1.6-0.3,3.2,0.3,4.8,0.2
			c2.9-0.2,5.5-1.7,8-3.1c1.5-0.8,3.1-1.5,4.7-1.9c1.7-0.3,3.4-0.3,5.1-0.3c3.1,0.1,6.3,0,8.9-2c0.8-0.6-0.3-1.7-1.1-1.1
			c-2.5,2-6,1.6-9,1.6s-5.7,0.5-8.4,1.9s-5.5,3.3-8.7,3.4c-2.7,0.1-5.8-1-7.6,1.7c-0.8,1.1-1,2.5-1.7,3.6c-0.9,1.5-2.5,1.9-4.1,2.3
			c-3.8,0.9-7.6,1.6-11.4,2.1c-7.7,1.1-15.6,1.6-23.4,1.4c-4.1-0.1-8.4-0.9-12.4-0.2c-3,0.5-5.8,2.2-6.9,5.2
			C152.8,305,154.2,305.4,154.5,304.5L154.5,304.5z"/>
	</g>
</g>
<g>
	<path class="st1" d="M155.7,305c0.5-5.4,0.7-10.8,0.5-16.2c-0.1-1.6-0.2-3.3-1.1-4.5c-0.7-1-1.9-1.7-3.1-2.2
		c-7.2-3-15.7-1.4-22.7-4.8c-3.1-1.5-5.9-3.9-9.2-4.9c-3.2-1-6.7-0.6-9.9-1.5c-6.3-1.6-10.9-7.5-17.2-9.2c-3.8-1-8.4-0.6-11.2-3.4
		c-0.7-0.7-1.2-1.5-2-2.1c-2-1.4-5-0.6-7-1.9c-1.3-0.8-1.9-2.3-2.5-3.7c-2.2-4.9-4.9-9.5-8.1-13.8"/>
	<g>
		<path class="st2" d="M156.1,305c0.5-5,0.7-10.1,0.5-15.2c-0.1-1.9-0.1-4.1-1.2-5.7c-1-1.4-2.6-2.1-4.1-2.6
			c-4.1-1.5-8.5-1.7-12.9-2.2c-2.3-0.3-4.5-0.6-6.7-1.3c-2.2-0.7-4.1-1.9-6.1-3.1c-1.7-1.1-3.5-2.2-5.5-2.8c-2.1-0.7-4.4-0.7-6.6-1
			c-2.4-0.2-4.6-0.7-6.7-1.8c-1.7-0.9-3.4-2-5-3.1c-3.2-2.2-6.4-4.3-10.3-5.1c-1.8-0.3-3.7-0.5-5.5-0.9c-1-0.2-2-0.5-2.9-1.1
			c-1-0.6-1.7-1.4-2.4-2.2c-1.4-1.5-3.1-1.7-5.1-2c-1.4-0.2-2.7-0.4-3.7-1.5c-0.8-0.9-1.2-2.1-1.7-3.1c-2.2-4.8-4.8-9.4-8-13.6
			c-0.3-0.4-0.9,0-0.6,0.4c2.7,3.7,5.1,7.7,7.1,11.8c0.8,1.7,1.4,3.7,2.7,5.1c1.2,1.3,2.8,1.6,4.4,1.8c1.1,0.1,2.2,0.2,3.2,0.8
			c1,0.6,1.7,1.7,2.5,2.4c1.2,1.1,2.7,1.6,4.3,2c1.9,0.4,3.8,0.6,5.6,0.9c2,0.4,3.9,1.2,5.6,2.2c3.3,1.9,6.3,4.5,9.8,6.1
			c1.7,0.8,3.5,1.3,5.4,1.6c2.5,0.3,5,0.3,7.4,1c4.1,1.2,7.3,4.4,11.3,5.8c4.1,1.4,8.4,1.6,12.6,2.1c2.5,0.3,5,0.7,7.3,1.6
			c1.2,0.4,2.5,1,3.3,1.9c1,1.1,1.2,2.5,1.3,3.9c0.4,5.6,0.1,11.4-0.4,17C155.3,305.5,156,305.5,156.1,305L156.1,305z"/>
	</g>
</g>
<g>
	<path class="st1" d="M119.9,272.4c-3.9,0.7-7.8,1.3-11.8,2c-1.6,0.3-3.2,0.6-4.6,1.4c-1,0.7-1.8,1.6-2.9,2.3
		c-3.6,2.3-8.4,0.4-12.7,1.1c-5.1,0.9-8.9,5.6-14,6.7c-1.7,0.4-3.6,0.3-5.3,0.8c-1.7,0.5-3.2,1.6-4.9,2.3c-2.6,1-5.4,1.1-8.2,1.4
		c-6.7,0.7-13.3,2.7-19.2,6"/>
	<g>
		<path class="st2" d="M119.8,272c-3.4,0.6-6.9,1.1-10.3,1.7c-2.6,0.4-5.1,0.8-7.2,2.5c-1.2,1-2.3,1.9-3.8,2.3s-3,0.3-4.5,0.2
			c-2.5-0.2-5-0.4-7.5,0.4c-2.4,0.7-4.4,2.2-6.5,3.5c-2.4,1.6-4.8,2.8-7.7,3.1c-1.3,0.2-2.7,0.2-4,0.7c-1.2,0.4-2.3,1.1-3.5,1.6
			c-3,1.5-6.3,1.6-9.6,1.9c-6.6,0.8-13.1,2.8-18.9,6c-0.4,0.2,0,0.9,0.4,0.6c5.6-3,11.8-5,18.1-5.8c2.8-0.3,5.7-0.3,8.3-1.2
			c1.2-0.4,2.4-1,3.5-1.6c1.5-0.8,3-1.2,4.7-1.4c2.6-0.3,4.8-0.9,7.1-2.2c2.2-1.3,4.3-2.9,6.6-4c2.6-1.2,5.3-1.2,8.1-1
			c2.3,0.2,4.8,0.3,7-0.7c1.4-0.7,2.4-2,3.7-2.7c1.5-0.9,3.2-1.1,4.8-1.4c3.8-0.6,7.5-1.3,11.3-1.9
			C120.4,272.6,120.2,271.9,119.8,272L119.8,272z"/>
	</g>
</g>
<g>
	<path class="st1" d="M156.2,296.1c-0.4-4.9-0.4-10.8,3.7-13.3c1.3-0.8,2.9-1.2,4.2-1.9c1.7-0.9,3-2.5,4.8-3.1
		c3.8-1.3,7.9,1.9,11.8,1c2.4-0.5,4.2-2.5,6.6-3c2.1-0.5,4.3,0.3,6.4,0c3.6-0.5,6.6-3.8,10.2-3.7c1.2,0,2.4,0.4,3.6,0.1
		c2.6-0.6,3.4-3.9,5.6-5.4c1.2-0.8,2.8-1,4.2-1.1c3.9-0.3,7.9,0.1,11.8,0.4c5,0.4,10.1,0.8,15.1,1.2"/>
	<g>
		<path class="st2" d="M156.6,296.1c-0.3-2.9-0.4-5.9,0.5-8.7c0.4-1.4,1.2-2.7,2.3-3.7c1.4-1.2,3.2-1.6,4.9-2.4
			c1.4-0.7,2.5-1.9,4-2.7c1.7-0.9,3.5-0.8,5.3-0.4c2.8,0.6,5.7,1.8,8.6,0.6c1.4-0.6,2.7-1.5,4.1-2.2c2-0.9,4-0.5,6-0.4
			c3.3,0.1,5.7-1.7,8.6-3c1.8-0.8,3.4-0.7,5.3-0.6c1.3,0.1,2.4-0.2,3.4-1s1.7-2,2.4-3c1.2-1.6,2.7-2.3,4.7-2.5
			c4.6-0.5,9.3,0,13.9,0.4c4.6,0.4,9.3,0.8,13.9,1.1c0.5,0,0.5-0.7,0-0.8c-4.3-0.4-8.6-0.7-12.9-1.1c-4.3-0.4-8.5-0.8-12.8-0.6
			c-1.7,0.1-3.4,0.1-5,0.9c-1.2,0.6-2,1.6-2.8,2.6c-0.9,1.2-1.8,2.7-3.4,3.1c-1.1,0.3-2.2-0.1-3.2-0.1c-0.8,0-1.5,0.1-2.3,0.3
			c-3.2,0.9-5.8,3.5-9.3,3.5c-1.9,0-3.8-0.5-5.7,0.1c-1.5,0.4-2.8,1.4-4.2,2.1c-3.5,1.9-6.7,0.1-10.3-0.4c-1.4-0.2-2.8-0.1-4.1,0.5
			c-1.5,0.7-2.7,1.9-4.1,2.8c-1.7,1-3.6,1.3-5.1,2.5c-1.1,0.9-1.9,2-2.4,3.3c-1.2,3.1-1.1,6.6-0.8,9.8
			C155.9,296.6,156.6,296.6,156.6,296.1L156.6,296.1z"/>
	</g>
</g>
<g>
	<path class="st1" d="M155.5,307.2c1.8-3.5,1.5-7.6,0.5-11.4c-1-3.7-2.8-7.2-4.2-10.9c-0.7-1.8-1.2-3.8-0.5-5.5
		c1-2.6,4.1-3.7,6.7-4.6c5.6-1.9,11-4.6,15.9-7.8c2.7-1.8,5.4-3.9,8.7-4.6c4.6-1,9.7,1,14.1-0.6c6-2.1,8.2-9.5,13.5-13"/>
	<g>
		<path class="st2" d="M155.8,307.4c3-6.2,0.3-12.9-2.1-18.9c-1.3-3.1-3.8-7.6-1.1-10.5c2.1-2.3,5.7-2.9,8.4-3.9
			c3.1-1.2,6-2.6,8.9-4.2c3-1.7,5.8-3.9,8.9-5.6c3.3-1.8,6.6-1.9,10.2-1.6c3.1,0.2,6.2,0.4,9.1-1.1c5.3-2.8,7.4-9.2,12.3-12.5
			c0.4-0.3,0-0.9-0.4-0.6c-4.5,3-6.6,8.5-11,11.6c-2.9,2.1-6.2,2.1-9.6,1.8c-3.3-0.2-6.4-0.4-9.5,1c-3.2,1.4-5.9,3.7-8.9,5.4
			c-3.1,1.9-6.4,3.5-9.9,4.9c-2.7,1.1-5.8,1.7-8.1,3.4c-2.3,1.6-2.9,4.1-2.2,6.8c1,4,3.2,7.7,4.4,11.7c1.2,3.9,1.6,8.2-0.2,12
			C155,307.5,155.6,307.9,155.8,307.4L155.8,307.4z"/>
	</g>
</g>
<g>
	<path class="st1" d="M195.2,262.1c3.2,0,5.6-3,8.6-4.3c3.1-1.4,6.7-0.8,10.1-0.9c6.7-0.4,13.1-4.1,16.7-9.7"/>
	<g>
		<path class="st2" d="M195.2,262.4c3.2-0.1,5.4-2.6,8.1-4c3.7-1.9,7.9-0.8,11.8-1.3c6.4-0.8,12.2-4.4,15.7-9.7
			c0.3-0.4-0.4-0.8-0.6-0.4c-3.7,5.5-9.9,9.2-16.6,9.5c-3.3,0.2-6.9-0.4-10,1c-2.8,1.3-5.1,4.1-8.4,4.2
			C194.7,261.7,194.7,262.4,195.2,262.4L195.2,262.4z"/>
	</g>
</g>
<g>
	<path class="st1" d="M154.5,314c4.8-8,8.3-17.4,6.8-26.6c-0.6-3.8-2-7.4-2.6-11.2c-0.5-3.8,0-8.1,2.6-10.8
		c3.5-3.6,9.5-3.5,13.2-6.9c1.6-1.4,2.6-3.3,4.3-4.6c2.5-1.8,5.9-1.9,8.4-3.7c4.1-3.1,3.9-10.1,8.2-13c3.3-2.2,8-1,11.3-3.2
		c1.8-1.2,2.9-3.3,4.9-4.2c2.1-0.9,4.6-0.2,6.8-0.5c3.4-0.4,6.2-3,8.3-5.6c4.3-5.4,7.3-11.8,8.6-18.6c0.6-2.9,0.8-5.9,1.9-8.7
		c1.7-4.7,5.5-8.4,6.8-13.2c0.7-2.5,0.7-5,1.2-7.5s1.7-5.1,3.9-6.3"/>
	<g>
		<path class="st2" d="M154.8,314.2c3.5-5.8,6.3-12.2,7-19c0.4-3.4,0.2-6.8-0.6-10.2c-0.8-3.4-2-6.8-2.3-10.4
			c-0.2-3.2,0.4-6.7,2.7-9.1c2.1-2.2,5.3-3,8.1-4.1c2.7-1,4.9-2.3,6.8-4.6c1-1.2,1.9-2.4,3.3-3.2c1.4-0.8,3-1.2,4.6-1.7
			c2.5-0.9,4.4-2.2,5.7-4.5c1.3-2.2,1.9-4.7,3.1-7c1.5-2.8,3.8-4,6.9-4.4c2.7-0.4,5.5-0.5,7.7-2.3c1.2-1,2.1-2.3,3.3-3.1
			c1.6-1.1,3.5-1,5.4-0.9c3,0.1,5.5-0.8,7.8-2.7c4.7-4,8-10,10-15.7c1.3-3.7,1.8-7.5,2.6-11.4c0.8-3.8,2.6-6.9,4.6-10.1
			c1.9-3.1,3.3-6.1,3.8-9.8s0.7-8.3,4.3-10.4c0.4-0.2,0-0.9-0.4-0.6c-2.3,1.4-3.5,3.9-4.1,6.5c-0.7,3.6-0.7,7.1-2.3,10.4
			c-1.4,2.9-3.4,5.5-4.8,8.4c-1.5,3.1-1.9,6.4-2.5,9.8c-1.2,6.9-4.1,13.5-8.4,19c-2,2.5-4.4,5.1-7.7,5.8c-3.1,0.7-6.2-0.6-9,1.5
			c-1,0.8-1.9,1.9-2.9,2.8c-1.4,1.2-3,1.7-4.8,2c-2.7,0.4-5.6,0.5-7.8,2.3c-4.1,3.3-3.6,9.8-8,12.8c-2.5,1.7-5.8,1.8-8.2,3.6
			c-1.1,0.9-2,2-2.9,3.1c-1,1.2-2.2,2.2-3.6,3c-2.6,1.3-5.4,1.9-8,3.3c-2.4,1.2-4.2,3.1-5.1,5.7c-2.6,7.4,2.1,14.8,2.3,22.2
			c0.3,8.2-3,16.1-7.1,23C153.9,314.2,154.5,314.6,154.8,314.2L154.8,314.2z"/>
	</g>
</g>
<g>
	<path class="st1" d="M231.8,216.3c1.6-1,2.9-2.4,3.9-3.9c0.4-0.6,0.7-1.2,1.2-1.7c0.6-0.6,1.5-0.9,2.2-1.3c1-0.6,1.9-1.4,2.6-2.4
		c0.5-0.8,1-1.7,1.8-2.1c1.2-0.5,2.4,0.4,3.6,0.8c2.2,0.6,4.8-0.8,5.4-3"/>
	<g>
		<path class="st2" d="M232,216.6c1-0.6,1.9-1.4,2.7-2.3c0.9-1,1.4-2.2,2.2-3.2s2.2-1.3,3.2-2.1c0.9-0.7,1.6-1.5,2.1-2.4
			c0.3-0.5,0.7-1.2,1.2-1.5c0.8-0.4,1.7,0,2.4,0.3c1,0.4,1.9,0.7,3,0.5c1.9-0.3,3.5-1.6,4-3.4c0.1-0.5-0.6-0.7-0.7-0.2
			c-0.8,2.4-3.3,3.4-5.6,2.5c-1-0.4-2.1-0.9-3.2-0.5c-0.8,0.3-1.3,1-1.7,1.7c-0.7,1.1-1.4,2-2.5,2.7c-0.9,0.6-1.9,0.9-2.7,1.7
			c-0.8,0.9-1.3,2-2,2.9c-0.8,1-1.8,1.8-2.9,2.5C231.2,216.2,231.6,216.9,232,216.6L232,216.6z"/>
	</g>
</g>
</svg>
