<?xml version="1.0" encoding="utf-8"?>
<!-- Generator: Adobe Illustrator 24.3.0, SVG Export Plug-In . SVG Version: 6.00 Build 0)  -->
<svg version="1.1" id="Layer_2" opacity="0.2" xmlns="http://www.w3.org/2000/svg" xmlns:xlink="http://www.w3.org/1999/xlink"
	 x="0px" y="0px" viewBox="0 0 1440 900" style="enable-background:new 0 0 1440 900;" xml:space="preserve">
<style type="text/css">
	.st0{fill:#E6E6E6;}
</style>
<g>
	<g>
		<path class="st0" d="M811.7,272c1.9,0,1.9-3,0-3C809.8,269,809.8,272,811.7,272L811.7,272z"/>
	</g>
</g>
<g>
	<g>
		<path class="st0" d="M464.7,209.3c1.9,0,1.9-3,0-3C462.8,206.3,462.8,209.3,464.7,209.3L464.7,209.3z"/>
	</g>
</g>
<g>
	<g>
		<path class="st0" d="M458.8,310.8c1.9,0,1.9-3,0-3C456.8,307.8,456.8,310.8,458.8,310.8L458.8,310.8z"/>
	</g>
</g>
<g>
	<g>
		<path class="st0" d="M691.6,295.2c1.9,0,1.9-3,0-3C689.7,292.2,689.7,295.2,691.6,295.2L691.6,295.2z"/>
	</g>
</g>
<g>
	<g>
		<path class="st0" d="M875.9,168.3c1.9,0,1.9-3,0-3C874,165.3,874,168.3,875.9,168.3L875.9,168.3z"/>
	</g>
</g>
<g>
	<g>
		<path class="st0" d="M1259.5,289.2c1.9,0,1.9-3,0-3C1257.6,286.2,1257.6,289.2,1259.5,289.2L1259.5,289.2z"/>
	</g>
</g>
<g>
	<g>
		<path class="st0" d="M1217,449.6c1.9,0,1.9-3,0-3C1215,446.6,1215,449.6,1217,449.6L1217,449.6z"/>
	</g>
</g>
<g>
	<g>
		<path class="st0" d="M1041.6,458.6c1.9,0,1.9-3,0-3C1039.7,455.6,1039.7,458.6,1041.6,458.6L1041.6,458.6z"/>
	</g>
</g>
<g>
	<g>
		<path class="st0" d="M1049.8,366.1c1.9,0,1.9-3,0-3C1047.9,363.1,1047.9,366.1,1049.8,366.1L1049.8,366.1z"/>
	</g>
</g>
<g>
	<g>
		<path class="st0" d="M1143.8,222.8c1.9,0,1.9-3,0-3C1141.9,219.8,1141.9,222.8,1143.8,222.8L1143.8,222.8z"/>
	</g>
</g>
<g>
	<g>
		<path class="st0" d="M1322.2,106.4c1.9,0,1.9-3,0-3C1320.3,103.4,1320.3,106.4,1322.2,106.4L1322.2,106.4z"/>
	</g>
</g>
<g>
	<g>
		<path class="st0" d="M75.2,20.5c1.9,0,1.9-3,0-3C73.2,17.5,73.2,20.5,75.2,20.5L75.2,20.5z"/>
	</g>
</g>
<g>
	<g>
		<path class="st0" d="M61.7,116.8c1.9,0,1.9-3,0-3C59.8,113.8,59.8,116.8,61.7,116.8L61.7,116.8z"/>
	</g>
</g>
<g>
	<g>
		<path class="st0" d="M292.3,110.1c1.9,0,1.9-3,0-3C290.4,107.1,290.4,110.1,292.3,110.1L292.3,110.1z"/>
	</g>
</g>
<g>
	<g>
		<path class="st0" d="M160.3,226.5c1.9,0,1.9-3,0-3C158.3,223.5,158.3,226.5,160.3,226.5L160.3,226.5z"/>
	</g>
</g>
<g>
	<g>
		<path class="st0" d="M34.9,282.5c1.9,0,1.9-3,0-3C33,279.5,32.9,282.5,34.9,282.5L34.9,282.5z"/>
	</g>
</g>
<g>
	<g>
		<path class="st0" d="M308.8,481.7c1.9,0,1.9-3,0-3C306.8,478.7,306.8,481.7,308.8,481.7L308.8,481.7z"/>
	</g>
</g>
<g>
	<g>
		<path class="st0" d="M202,525c1.9,0,1.9-3,0-3C200.1,522,200.1,525,202,525L202,525z"/>
	</g>
</g>
<g>
	<g>
		<path class="st0" d="M196.8,395.2c1.9,0,1.9-3,0-3C194.9,392.2,194.9,395.2,196.8,395.2L196.8,395.2z"/>
	</g>
</g>
<g>
	<g>
		<path class="st0" d="M688.6,160.1c1.9,0,1.9-3,0-3C686.7,157.1,686.7,160.1,688.6,160.1L688.6,160.1z"/>
	</g>
</g>
<g>
	<g>
		<path class="st0" d="M620,55.6c1.9,0,1.9-3,0-3C618,52.6,618,55.6,620,55.6L620,55.6z"/>
	</g>
</g>
<g>
	<g>
		<path class="st0" d="M930.4,468.3c1.9,0,1.9-3,0-3C928.5,465.3,928.5,468.3,930.4,468.3L930.4,468.3z"/>
	</g>
</g>
<g>
	<g>
		<path class="st0" d="M1002,375c1.9,0,1.9-3,0-3C1000.1,372,1000.1,375,1002,375L1002,375z"/>
	</g>
</g>
<g>
	<g>
		<path class="st0" d="M952.8,358.6c1.9,0,1.9-3,0-3C950.9,355.6,950.9,358.6,952.8,358.6L952.8,358.6z"/>
	</g>
</g>
<g>
	<g>
		<path class="st0" d="M1260.3,112.3c1.9,0,1.9-3,0-3C1258.3,109.3,1258.3,112.3,1260.3,112.3L1260.3,112.3z"/>
	</g>
</g>
<g>
	<g>
		<path class="st0" d="M1198.3,62.3c1.9,0,1.9-3,0-3C1196.4,59.3,1196.4,62.3,1198.3,62.3L1198.3,62.3z"/>
	</g>
</g>
<g>
	<g>
		<path class="st0" d="M118.5,287.7c1.9,0,1.9-3,0-3C116.5,284.7,116.5,287.7,118.5,287.7L118.5,287.7z"/>
	</g>
</g>
<g>
	<g>
		<path class="st0" d="M75.2,310.1c1.9,0,1.9-3,0-3C73.2,307.1,73.2,310.1,75.2,310.1L75.2,310.1z"/>
	</g>
</g>
<g>
	<g>
		<path class="st0" d="M154.3,335.5c1.9,0,1.9-3,0-3C152.4,332.5,152.4,335.5,154.3,335.5L154.3,335.5z"/>
	</g>
</g>
<g>
	<g>
		<path class="st0" d="M111,336.9c1.9,0,1.9-3,0-3C109.1,333.9,109.1,336.9,111,336.9L111,336.9z"/>
	</g>
</g>
<g>
	<g>
		<path class="st0" d="M138.6,336.9c1.9,0,1.9-3,0-3C136.7,333.9,136.7,336.9,138.6,336.9L138.6,336.9z"/>
	</g>
</g>
<g>
	<g>
		<path class="st0" d="M122.2,542.2c1.9,0,1.9-3,0-3C120.3,539.2,120.3,542.2,122.2,542.2L122.2,542.2z"/>
	</g>
</g>
<g>
	<g>
		<path class="st0" d="M115.5,676.5c1.9,0,1.9-3,0-3C113.5,673.5,113.5,676.5,115.5,676.5L115.5,676.5z"/>
	</g>
</g>
<g>
	<g>
		<path class="st0" d="M311.7,750.4c1.9,0,1.9-3,0-3C309.8,747.4,309.8,750.4,311.7,750.4L311.7,750.4z"/>
	</g>
</g>
<g>
	<g>
		<path class="st0" d="M155.8,765.3c1.9,0,1.9-3,0-3C153.8,762.3,153.8,765.3,155.8,765.3L155.8,765.3z"/>
	</g>
</g>
<g>
	<g>
		<path class="st0" d="M416.2,42.2c1.9,0,1.9-3,0-3C414.3,39.2,414.3,42.2,416.2,42.2L416.2,42.2z"/>
	</g>
</g>
<g>
	<g>
		<path class="st0" d="M487.9,129.5c1.9,0,1.9-3,0-3C485.9,126.5,485.9,129.5,487.9,129.5L487.9,129.5z"/>
	</g>
</g>
<g>
	<g>
		<path class="st0" d="M385.6,166.1c1.9,0,1.9-3,0-3C383.7,163.1,383.7,166.1,385.6,166.1L385.6,166.1z"/>
	</g>
</g>
<g>
	<g>
		<path class="st0" d="M1323.7,560.8c1.9,0,1.9-3,0-3C1321.8,557.8,1321.8,560.8,1323.7,560.8L1323.7,560.8z"/>
	</g>
</g>
<g>
	<g>
		<path class="st0" d="M1247.6,612.3c1.9,0,1.9-3,0-3C1245.6,609.3,1245.6,612.3,1247.6,612.3L1247.6,612.3z"/>
	</g>
</g>
<g>
	<g>
		<path class="st0" d="M1258,686.9c1.9,0,1.9-3,0-3C1256.1,683.9,1256.1,686.9,1258,686.9L1258,686.9z"/>
	</g>
</g>
<g>
	<g>
		<path class="st0" d="M1365.5,730.2c1.9,0,1.9-3,0-3C1363.5,727.2,1363.5,730.2,1365.5,730.2L1365.5,730.2z"/>
	</g>
</g>
<g>
	<g>
		<path class="st0" d="M1345.3,588.4c1.9,0,1.9-3,0-3C1343.4,585.4,1343.4,588.4,1345.3,588.4L1345.3,588.4z"/>
	</g>
</g>
<g>
	<g>
		<path class="st0" d="M1367.7,422c1.9,0,1.9-3,0-3C1365.8,419,1365.8,422,1367.7,422L1367.7,422z"/>
	</g>
</g>
<g>
	<g>
		<path class="st0" d="M1348.3,346.6c1.9,0,1.9-3,0-3C1346.4,343.6,1346.4,346.6,1348.3,346.6L1348.3,346.6z"/>
	</g>
</g>
<g>
	<g>
		<path class="st0" d="M1117,115.3c1.9,0,1.9-3,0-3C1115,112.3,1115,115.3,1117,115.3L1117,115.3z"/>
	</g>
</g>
<g>
	<g>
		<path class="st0" d="M840.1,65.3c1.9,0,1.9-3,0-3C838.2,62.3,838.2,65.3,840.1,65.3L840.1,65.3z"/>
	</g>
</g>
<g>
	<g>
		<path class="st0" d="M925.2,30.2c1.9,0,1.9-3,0-3C923.2,27.2,923.2,30.2,925.2,30.2L925.2,30.2z"/>
	</g>
</g>
</svg>
